<?xml version="1.0" encoding="UTF-8"?>
<svg xmlns="http://www.w3.org/2000/svg" version="1.1" viewBox="0 0 831.8 787.7">
  <defs>
    <style>
      .cls-1 {
        fill: #111;
      }

      .cls-2 {
        fill: #a53a2f;
      }

      .cls-3 {
        fill: #083b96;
      }

      .cls-4 {
        fill: #89c2c1;
      }

      .cls-5 {
        fill: #06306d;
      }

      .cls-6 {
        fill: #ff6845;
      }

      .cls-7 {
        fill: #f98e70;
      }

      .cls-8 {
        fill: #110300;
      }

      .cls-9 {
        fill: #fff;
      }

      .cls-10 {
        fill: #03244c;
      }

      .cls-11 {
        fill: #db8f2c;
      }

      .cls-12 {
        fill: #ffaf98;
      }

      .cls-13 {
        fill: #2e5abb;
      }

      .cls-14 {
        opacity: .5;
      }

      .cls-15 {
        fill: #231f20;
      }

      .cls-16 {
        fill: #199;
      }

      .cls-17 {
        fill: #ff5831;
      }

      .cls-18 {
        fill: #48c4ef;
      }

      .cls-19 {
        fill: #62b5ad;
      }

      .cls-20 {
        fill: #bbf9cb;
      }

      .cls-21 {
        fill: #0a5c60;
      }

      .cls-22 {
        fill: #b77220;
      }

      .cls-23 {
        fill: #d4f9e0;
      }

      .cls-24 {
        fill: #330a02;
      }

      .cls-25 {
        fill: #d6231a;
      }

      .cls-26 {
        fill: #cbf4df;
      }

      .cls-27 {
        opacity: .9;
      }

      .cls-28 {
        fill: #ef523f;
      }

      .cls-29 {
        fill: #d7f3ff;
      }

      .cls-30 {
        fill: #ffa42c;
      }

      .cls-31 {
        fill: #97daff;
      }

      .cls-32 {
        fill: #3ea399;
      }

      .cls-33 {
        opacity: .6;
      }

      .cls-34 {
        fill: #69d1ff;
      }

      .cls-35 {
        fill: #8bc3c0;
      }

      .cls-36 {
        fill: #2c8790;
      }

      .cls-37 {
        fill: #38a8ad;
      }

      .cls-38 {
        fill: #b3d0d1;
      }

      .cls-39 {
        fill: #feb84f;
      }

      .cls-40 {
        opacity: .4;
      }
    </style>
  </defs>
  <!-- Generator: Adobe Illustrator 28.6.0, SVG Export Plug-In . SVG Version: 1.2.0 Build 709)  -->
  <g>
    <g id="Layer_1">
      <path id="Path_969" class="cls-23" d="M722.2,273.6c-51.1-22.8-80-44.5-96.5-65.6-.7-.9-1.4-1.8-2-2.7-.1-.2-.2-.3-.3-.5-.3-.4-.5-.7-.7-1-.3-.5-.7-1-1-1.4-.4-.6-.9-1.2-1.3-1.9-21.5-33-15.3-64.6-19.3-96.5-.6-4.5-1.3-9.5-2.3-14.7C591.3,51,568.9-1.3,495.2,0c-27.5.5-62.2,8.5-106,27.6-16.1,7-33.5,15.5-52.1,25.7-84.8,46.2-136.7,98.1-168.4,144.6-10.8,15.8-20.2,32.5-28,50-18.4,41.3-12.1,88,14.5,122.9,7.3,9.6,16,18.1,25.7,25.2,4.1,3.1,8.3,6,12.6,8.9,3.1,2.1,6.2,4.1,9.4,6.1,1.3.9,2.7,1.7,4.1,2.5,0,0,0,0,0,0,1.4.9,2.9,1.8,4.4,2.6,2,1.2,3.9,2.3,5.9,3.4,1,.6,2,1.1,2.9,1.7,1,.5,2,1.1,3,1.6.4.2.9.5,1.3.7.9.5,1.8,1,2.8,1.5.8.4,1.5.8,2.3,1.2.6.3,1.3.7,2,1,.9.5,1.9,1,2.8,1.4.5.2,1,.5,1.4.7,1.2.6,2.4,1.2,3.6,1.8.3.2.6.3.9.4,1.3.6,2.6,1.3,3.9,1.9.3.2.7.3,1,.5,1,.5,2.1,1,3.1,1.4.9.4,1.8.8,2.6,1.2.5.2,1,.5,1.5.7,1.1.5,2.2,1,3.3,1.4,1.4.6,2.8,1.2,4.2,1.8,1,.4,1.9.8,2.9,1.2.7.3,1.4.6,2.2.9,1.2.5,2.4,1,3.7,1.5.3.1.6.2.9.4,1.6.6,3.1,1.2,4.7,1.8,1.5.6,3,1.1,4.5,1.7.3,0,.5.2.8.3,1.6.6,3.2,1.2,4.8,1.8,5.1,1.8,10.2,3.6,15.4,5.3l3.4,1.1c1.2.4,2.5.8,3.7,1.2,1.1.3,2.1.7,3.2,1,1.7.5,3.5,1,5.2,1.5,2.1.6,4.3,1.2,6.4,1.8,3.1.9,6.1,1.7,9.2,2.5,0,0,.1,0,.2,0,1.7.4,3.4.9,5.1,1.3,1.8.4,3.5.9,5.3,1.3,3.5.8,7.1,1.7,10.6,2.5,4.3,1,8.6,1.9,12.9,2.7,2.3.5,4.6.9,6.9,1.4,2.1.4,4.2.8,6.3,1.2,5.5,1,11,1.9,16.5,2.8,1.4.2,2.8.4,4.1.6l4.1.6c13.7,2,27.5,3.7,41.2,5,11,1,21.9,1.9,32.7,2.6,1.3,0,2.7.2,4.1.2s2.7.2,4.1.2c31.7,1.7,62.6,1.8,91.7,1.1,2.6,0,5.1-.1,7.7-.2,3.9-.1,7.8-.3,11.6-.4,6.7-.3,13.2-.6,19.7-.9,19.6-1,39-4.3,57.8-9.9,5.6-1.7,11-3.5,16.3-5.6,104.6-40.1,145.9-146.9,32.5-197.4Z"/>
      <path id="Path_970" class="cls-9" d="M621.8,148c-7,7.1-16,12.1-25.8,14.1-9.3,2.1-19.9,2.3-32.5.6-23.7-3.2-50.6-12.9-76.6-22.2-9.3-3.4-19-6.8-28.3-9.9-22.9-7.6-49.7-4-82,11-27.7,12.9-55.7,32.4-80.4,49.6-11.7,8.1-22.7,15.8-32.9,22.3-11.8,7.5-25.9,10.3-42,8.5-13.1-1.5-27.5-6.1-42.9-13.6-16.7-8.3-32.3-18.6-46.6-30.5-1.3-1.1-3.2-1-4.4.3s-1,3.2.3,4.4c0,0,0,0,0,0,14.7,12.3,30.7,22.8,47.9,31.3,16,7.9,31.1,12.6,44.9,14.2,3.3.4,6.7.6,10,.6,13.5,0,25.6-3.3,36.1-10,10.3-6.6,21.4-14.3,33.2-22.5,24.5-17.1,52.3-36.4,79.5-49.1,30.8-14.3,56.1-17.8,77.4-10.7,9.3,3.1,18.9,6.5,28.2,9.9,32.7,11.7,66,23.7,94.4,23.7s34.2-4.9,46.9-17.7c1.2-1.2,1.2-3.2,0-4.4-1.2-1.2-3.2-1.2-4.4,0,0,0,0,0,0,0h0Z"/>
      <path id="Path_971" class="cls-9" d="M645.5,130.1c-8.5,5.3-18.4,8-28.4,7.7-9.5-.1-19.9-2.4-31.7-6.9-22.3-8.6-46.2-24.3-69.3-39.4-8.3-5.4-16.9-11-25.3-16.2-20.5-12.7-47.4-15.5-82.3-8.4-29.9,6.1-61.7,18.6-89.7,29.6-13.2,5.2-25.8,10.1-37.2,14.1-13.2,4.5-27.6,4-42.8-1.5-12.4-4.5-25.4-12.3-38.5-23.2-14.3-12-27.1-25.6-38.3-40.5-1-1.4-2.9-1.7-4.3-.7-1.4,1-1.7,2.9-.7,4.3h0c11.4,15.3,24.6,29.3,39.3,41.5,13.7,11.4,27.3,19.5,40.4,24.3,16.6,6,32.4,6.5,47,1.5,11.6-4,24.2-8.9,37.5-14.2,27.8-10.9,59.3-23.3,88.7-29.3,33.3-6.8,58.7-4.3,77.8,7.6,8.3,5.2,16.8,10.8,25.1,16.2,35.7,23.4,72.4,47.4,105.1,47.4,10.9.1,21.7-2.9,30.9-8.7,1.4-.9,1.9-2.8,1-4.3-.9-1.4-2.8-1.9-4.3-1h0Z"/>
      <path id="Path_972" class="cls-26" d="M793.1,314.8c5-7,5.6-16.1.7-22.8-6.2-8.6-19.1-9.9-28.7-2.9-.4.3-.8.6-1.2.9-1.6-3.8-4.5-6.7-8.3-7.5-5.2-1.2-10.6,1.7-13.9,6.9-5.7-5.2-14-6.6-21.1-3.5-1.2-18.2-17-32-35.3-30.8-14.4,1-26.5,11.2-29.9,25.3-3.2-2.3-7.1-3.5-11.1-3.6-11.9,0-21.5,11.1-21.5,24.8,0,4.3,1,8.6,3,12.5-14.5,1.8-23.2,4.1-23.2,6.6,0,5.8,46.7,10.4,104.4,10.4s104.4-4.7,104.4-10.4c0-2.2-6.8-4.2-18.3-5.9Z"/>
      <path id="Path_973" class="cls-26" d="M220.5,164.3c15.8-15.3,16.1-40.5.8-56.3-15.3-15.8-40.5-16.1-56.3-.8-5.7,5.5-9.6,12.6-11.2,20.4-2.5-1-5.3-1.5-8-1.5-10.4,0-19.2,7.2-22.3,17.2-4.4-2.7-9.5-4.2-14.7-4.1-13.1,0-23.7,8.6-23.7,19.1,0,2.7.7,5.4,2.1,7.8-17.4,2.7-28.1,6.5-28.1,10.6,0,8.5,45.2,15.3,101,15.3s101-6.9,101-15.3-16-9.5-40.7-12.3Z"/>
      <path id="Path_974" class="cls-26" d="M537.5,169.4c3-4.2,3.4-9.7.4-13.8-3.8-5.2-11.5-6-17.3-1.7-.2.2-.5.4-.7.6-.8-2.2-2.7-3.9-5-4.5-3.2-.7-6.4,1-8.4,4.2-3.4-3.2-8.4-4-12.7-2.1-.7-11-10.3-19.3-21.3-18.6-8.7.6-16,6.8-18.1,15.2-2-1.4-4.3-2.1-6.7-2.2-7.2,0-13,6.7-13,14.9,0,2.6.6,5.2,1.8,7.6-8.8,1.1-14,2.5-14,4,0,3.5,28.2,6.3,63,6.3s63-2.8,63-6.3c0-1.3-4.1-2.6-11-3.6Z"/>
      <path id="Path_975" class="cls-26" d="M639.1,57.9c2.1-2.7,2.2-6.5.3-9.3-2.6-3.5-7.8-4-11.7-1.2-.2.1-.3.3-.5.4-.6-1.5-1.8-2.7-3.4-3.1-2.1-.5-4.3.7-5.7,2.8-2.3-2.1-5.7-2.7-8.6-1.4-.5-7.4-6.9-13.1-14.3-12.6-5.9.4-10.9,4.6-12.3,10.4-1.3-.9-2.9-1.4-4.5-1.5-4.8,0-8.8,4.5-8.8,10.1,0,1.8.4,3.5,1.2,5.1-5.9.7-9.5,1.7-9.5,2.7,0,2.4,19.1,4.3,42.6,4.3s42.6-1.9,42.6-4.3c0-.9-2.7-1.7-7.5-2.4Z"/>
      <g id="Group_305" class="cls-27">
        <path id="Path_976" class="cls-20" d="M478.9,335.1c-15.4-36-31.9-68.4-49-93.5-29.2-42.8-60.2-64.3-90.5-46-20.1,12.2-42,31.4-64.5,54.9-11.3,11.8-22.7,24.6-34.2,38.2-7.2,8.6-14.5,17.5-21.7,26.6-94.7,119.8-183.9,276.4-183.9,276.4,91.6,18.8,462.5,97.2,543.6,110.2,10.2,1.6-28.4-185.2-86.3-333.8-4.4-11.3-8.9-22.3-13.5-33Z"/>
      </g>
      <g id="Group_306" class="cls-33">
        <path id="Path_977" class="cls-26" d="M753.4,526.5c-3.2-7.9-6.4-15.6-9.6-23.1-23.2-53.9-48.1-97.6-69.9-105-19.7-6.7-57,16.4-98.9,51.2-11.9,9.9-24.1,20.7-36.4,32-8.5,7.8-17,15.9-25.4,24.1-74.6,72.2-144.7,153.9-144.7,153.9,26.9,15.2,457.3,84.4,457.3,84.4,0,0-28.7-104.4-65-198.7-2.4-6.3-4.9-12.6-7.4-18.8Z"/>
      </g>
      <path id="Path_978" class="cls-31" d="M130.4,597.5s-10.4-18.6-15.9-20.7-16.3-17.8-23.5-24.8c-4.5-4.3-13.3-7.1-19.6-8.6-3.9-.9-6.8-1.4-6.8-1.4-26,10.8-47.1,55.4-47.1,55.4h0c11.2,12.8,41.1,23.7,67.4,30.3,23.2,5.8,43.7,8.2,46.1,5.3,2.8-3.3,2.4-13.1,1.4-21.6-.8-7.5-2.1-14-2.1-14Z"/>
      <path id="Path_979" class="cls-34" d="M114.5,576.8c-5.5-2.1-16.3-17.8-23.5-24.8-4.5-4.3-13.3-7.1-19.6-8.6,9.4,12.7,24,32.4,28.2,43.3,4.4,11.3-6.7,29.8-14.6,41,23.2,5.8,43.7,8.2,46.1,5.3,5.2-6.2-.7-35.6-.7-35.6,0,0-10.4-18.6-15.9-20.7Z"/>
      <path id="Path_980" class="cls-29" d="M64.2,548.6c-4.6-1.2-16.1,9.9-22.3,18.5-1.4,2,2.1,4.2,4.2,3.4,17.5-5.9,29.6,7.6,31.2-.6,1.8-9.4-6-19.4-13.1-21.3Z"/>
      <path id="Path_981" class="cls-18" d="M121,617.7c-48.4,19.4-102.1-19.2-103.4-20.1,11.2,12.7,41.1,23.7,67.4,30.3,23.2,5.8,43.7,8.2,46.1,5.3,2.8-3.3,2.4-13.1,1.4-21.6l-11.6,6.2Z"/>
      <path id="Path_982" class="cls-21" d="M419.4,555.4c-.3,0-7-.6-18.7,12.1-6.8,7.3-13.9,17.7-21.2,30.7-9.1,16.2-18.4,36.7-27.7,60.9-.1.3,0,.7.4.8.3.1.7,0,.8-.3,11.6-30,29.3-70,48.4-90.9,5.9-6.5,10.5-9.4,13.3-10.7,1.4-.8,3-1.2,4.6-1.3.3,0,.6-.3.7-.6,0-.3-.2-.6-.5-.6h0Z"/>
      <path id="Path_983" class="cls-21" d="M346.4,552.8c-.3-.1-.7,0-.8.4-3.3,9.6-5.8,19.5-7.4,29.5-2.7,16.1-4.5,40.3,1.7,64.1,0,.3.4.5.8.4.3,0,.5-.4.4-.8h0c-6.2-23.6-4.3-47.6-1.7-63.5,1.6-10,4-19.8,7.3-29.3.1-.3,0-.7-.4-.8,0,0,0,0,0,0h0Z"/>
      <path id="Path_984" class="cls-39" d="M343.6,549.3c-2,1.9-2.4,4.9-1,7.2,1,1.9,3.4,2.6,5.3,1.6.3-.2.6-.3.8-.6,2-1.9,2.4-4.8,1-7.2-1-1.9-3.4-2.6-5.3-1.6-.3.1-.5.3-.8.5Z"/>
      <ellipse id="Ellipse_1" class="cls-39" cx="415.3" cy="554.2" rx="5.1" ry="4.3" transform="translate(-154.2 948.2) rotate(-87.8)"/>
      <path id="Path_985" class="cls-21" d="M320.4,597.1c-1.4-2.2-2.7-4.3-3.8-5.8-1.6-2.3-1.9-2.3-2.1-2.4-.3,0-.6.2-.6.5,0,.2.1.5.3.6,1,.8,8.9,12,16.3,28.2,6.5,14.2,13.9,34.9,11.7,52.9,0,.3.2.6.5.6h0c.3,0,.5-.2.6-.5,2.2-18.5-5.4-39.7-12.2-54.3-3.2-6.8-6.8-13.5-10.7-19.9Z"/>
      <path id="Path_986" class="cls-39" d="M316.8,584.3c-2.4-1.6-5.4-.6-6.8,2.3s-.5,6.4,1.8,8,5.4.6,6.8-2.3.5-6.4-1.8-8Z"/>
      <path id="Path_987" class="cls-38" d="M378,567.3c-.4-.3-.8-.7-1.3-.9.4-2.7-.4-4.2-1.4-5.1-1.5-1.3-3.7-1.2-5.2.1-34.4,28.2-39.7,75.4-39.9,76.6-3.8,26.8,5.3,21.1,9.1,25.8.3.3.5.7.7,1.1,3.2,6.7,5.3,8.8,11.7,9.2s7.1-21,10.3-31.4,20.1-63.7,19.7-68.6c-.4-2.7-1.7-5.1-3.8-6.7Z"/>
      <path id="Path_988" class="cls-32" d="M355.7,603.9l-1.1,2.1-2.1,4.2c-.3.7-.7,1.4-1,2.1l-.9,2.2-1.9,4.3c-.2.4-.3.7-.5,1.1l-.4,1.1-.9,2.2-.9,2.2c-.3.7-.6,1.5-.8,2.2-2.1,5.9-3.8,12.1-5,18.3l-.4,2.3c0,.4-.1.8-.2,1.2v1.2c-.1,0-.4,2.4-.4,2.4,0,.8,0,1.6-.1,2.4,0,.4,0,.8,0,1.2v1.2s0,1.2,0,1.2c0,.4,0,.8,0,1.2s0,.8.1,1.2l.2,1.2c.1.8.3,1.6.6,2.3-.2-.8-.3-1.5-.4-2.3v-1.2c0-.4,0-.8,0-1.2v-2.3c0,0,.1-1.2.1-1.2,0-.4,0-.8.1-1.2,0-.8.2-1.6.3-2.3l.4-2.3c.2-1.5.6-3.1.9-4.6l.2-1.1c0-.4.2-.8.3-1.1l.6-2.3.3-1.1c0-.4.2-.8.3-1.1l.7-2.2c.8-3,1.9-6,2.9-8.9.2-.7.5-1.5.8-2.2l.8-2.2.8-2.2.4-1.1c.1-.4.3-.7.4-1.1l1.8-4.3c.6-1.4,1.2-2.9,1.8-4.3l1.9-4.3c.6-1.4,1.2-2.9,1.9-4.3,1.3-2.9,2.6-5.7,3.9-8.6-1.6,2.7-3.1,5.5-4.6,8.2-.4.7-.8,1.4-1.1,2.1Z"/>
      <path id="Path_989" class="cls-35" d="M376.7,566.3c.4-2.7-.4-4.2-1.4-5.1-1.5-1.3-3.7-1.2-5.2.1-34.4,28.2-39.7,75.4-39.9,76.6-3.8,26.8,5.3,21.1,9.1,25.8-1.7-37.3,28.4-81.5,38.6-96.5-.4-.3-.8-.7-1.3-.9Z"/>
      <path id="Path_990" class="cls-35" d="M409.3,593.1c-1-.6-2.3-.9-3.5-.8-13,.6-25.8,11.7-32.3,19.2-6.5,7.6-5.9,21.3-5.8,21.9l-1.3-10.6c-9.5,13.6-10.1,31.7-10.1,31.7l-2.2-6.7c-2.1,6.2-2.2,25.7-2.2,25.7,11.5-1.9,19.2-12,19.5-12.3-1.7,1.1-4,.8-5.5-.6,17.9-3.6,22-29.3,25.6-38.7s9.9-16.2,16.6-22.1c3.1-2.7,3.1-4.6,2.3-5.7-.3-.4-.7-.8-1.2-1.1Z"/>
      <path id="Path_991" class="cls-19" d="M378.1,624.8c-8.1,12.4-26.1,48.8-26.1,48.8,11.5-1.9,19.2-12,19.5-12.3-1.7,1.1-4,.8-5.5-.6,17.9-3.6,22-29.3,25.6-38.7s9.9-16.2,16.6-22.1c3.1-2.7,3.1-4.6,2.3-5.7-15.8,4.5-25,19.1-32.4,30.6Z"/>
      <path id="Path_992" class="cls-32" d="M387.3,611.7l-1.5,1.9-.8,1c-.3.3-.5.6-.7,1l-1.4,2c-1,1.3-1.9,2.7-2.8,4-3.7,5.4-7.1,11.1-10.4,16.8s-6.3,11.5-9.3,17.4c-.7,1.5-1.5,2.9-2.2,4.4s-1.4,3-2.1,4.5c-1.4,3-2.7,6-4,9,3-5.8,6.1-11.6,9.2-17.4,1.6-2.9,3.1-5.8,4.7-8.6l2.4-4.3,2.4-4.3c.8-1.4,1.6-2.8,2.5-4.3s1.6-2.8,2.5-4.2l2.5-4.2c.9-1.4,1.8-2.8,2.6-4.2,3.5-5.5,7.2-10.9,11.2-16.1-1.1,1.2-2.2,2.5-3.3,3.7-.5.6-1,1.2-1.6,1.9Z"/>
      <path id="Path_993" class="cls-36" d="M334.1,632.6l-2.4,8.9s1.2-14.4.3-16.5-10-15.4-14.4-17c-3.8-1.4-12-2.5-14.2-2.8h0c-.4,0-.6,0-.6,0l4.4,11.9,11.7,4.7-9.9-.6s7.5,19.6,8.6,20.5,11.9,8.1,11.9,8.1l-10.7-3.5s5.2,16.1,8.2,18.3c2.9,2.2,11,6.9,11.4,7.1h0s4.2-13.8,2.9-21.2-7.1-17.9-7.1-17.9Z"/>
      <path id="Path_994" class="cls-37" d="M303.3,605.2h0c-.4,0-.6,0-.6,0l4.4,11.9,11.7,4.7-9.9-.6s7.5,19.6,8.6,20.5,11.9,8.1,11.9,8.1l-10.7-3.5s5.2,16.1,8.2,18.3c2.9,2.2,11,6.9,11.4,7.1-2.1-11.4-9.6-35.2-18.3-50-5.5-9.3-11.9-14.1-16.7-16.5Z"/>
      <path id="Path_995" class="cls-21" d="M334.8,654.6c-.3-.9-.6-1.9-.9-2.8-.3-.9-.6-1.9-.9-2.8-1.3-3.7-2.7-7.3-4.2-10.9-.4-.9-.8-1.8-1.2-2.7-.4-.9-.8-1.8-1.3-2.6-.4-.9-.9-1.7-1.4-2.6-.2-.4-.5-.8-.8-1.2-.1-.2-.3-.4-.4-.6,0-.1-.2-.2-.2-.3,0,0-.2-.2-.3-.2.1,0,.2.1.3.2,0,.1.1.2.2.3.1.2.2.4.4.6.2.4.4.9.7,1.3.4.9.8,1.8,1.2,2.6s.8,1.8,1.1,2.7.7,1.8,1.1,2.7c1.4,3.6,2.6,7.3,3.8,11,.3.9.6,1.8.9,2.8s.6,1.9.8,2.8c.5,1.9,1,3.7,1.5,5.6.2.9.5,1.9.8,2.8l.4,1.4.4,1.4c.5,1.9,1.1,3.7,1.7,5.6-.3-3.9-.9-7.7-1.9-11.5-.5-1.9-1-3.7-1.6-5.6Z"/>
      <path id="Path_996" class="cls-36" d="M723.6,665.5s2.9-16.5-1.2-25-12.7-18-12.7-18l-5.4,7.5s-.7-13-3.7-17.1-42.3-20.6-48.6-19.6c-.2,0-.5.1-.7.2-5,2.6,2.6,24.7,7.8,28.8l24.9-2.2-19.9,8.3,1.9,4.4,26.2-4.9-18.8,11.5,15,21.3,20,1.5-14.6,5.8s4.1,20,7.9,24.2,14.8,13.7,14.8,13.7l-14.6-6.2s8.3,27,18.2,28.7c0,0,.1,0,.2,0,0,0,18.4-33.1,8.4-76l-5.2,13.2Z"/>
      <path id="Path_997" class="cls-37" d="M651.4,593.5c-5,2.6,2.6,24.7,7.8,28.8l24.9-2.2-19.9,8.3,1.9,4.4,26.2-4.9-18.8,11.5,15,21.3,20,1.5-14.6,5.8s4.1,20,7.9,24.2,14.8,13.7,14.8,13.7l-14.6-6.2s8.3,27,18.2,28.7c4.8-34.3,0-58.4-12-83.8-9.7-20.5-40.9-41.3-56.9-51Z"/>
      <path id="Path_998" class="cls-21" d="M723.3,693.7v-1.5c0-.5,0-1-.1-1.5l-.2-2.9c0-1-.2-1.9-.3-2.9s-.2-1.9-.3-2.9c-.5-3.9-1.2-7.7-2.1-11.6-.9-3.8-2.1-7.6-3.5-11.2-.7-1.8-1.5-3.6-2.4-5.4l-.7-1.3-.7-1.3c-.5-.9-1-1.7-1.5-2.5-1-1.7-2.2-3.3-3.4-4.8l-.5-.6-.5-.6c-.3-.4-.7-.7-1-1.1-.3-.4-.7-.7-1.1-1-.3-.3-.7-.6-1.1-.9.1,0,.2.1.3.2,0,0,.2.2.3.3.2.2.3.4.5.5.3.4.6.7.9,1.1s.6.8.9,1.1l.4.6.4.6c1.1,1.6,2,3.3,2.9,5,.4.9.9,1.7,1.3,2.6l.6,1.3.6,1.3c.2.4.4.9.5,1.3l.5,1.3c.4.9.7,1.8,1,2.7,1.2,3.6,2.3,7.3,3.1,11.1.2.9.4,1.9.6,2.8s.4,1.9.5,2.8.3,1.9.5,2.8l.4,2.9c.5,3.8.8,7.7,1,11.5.3,3.8.3,7.7.3,11.6,0,7.7-.5,15.5-1,23.2,1.5-7.6,2.5-15.4,2.8-23.2v-2.9c.1,0,.1-1.5.1-1.5v-4.4c0-1,0-1.9,0-2.9Z"/>
      <path id="Path_999" class="cls-36" d="M675.8,691.5l4.1,12s-9.9-17.2-12.6-18.8-24-9.1-30.4-7.3c-5.5,1.5-16.1,7-19,8.5h0c-.5.2-.7.4-.7.4l14.5,9.7,17.4-4.3-12.1,7.5s24.2,15.8,26.3,15.9,20.4-.6,20.4-.6l-15.4,4.9s18.8,13.8,24.1,13.9c5.2,0,18.4-1.2,19.1-1.3,0,0,0,0,0,0,0,0-5.9-19-13.2-26.2s-22.4-14.3-22.4-14.3Z"/>
      <path id="Path_1000" class="cls-37" d="M617.9,686h0c-.5.2-.7.4-.7.4l14.5,9.7,17.4-4.3-12.1,7.5s24.2,15.8,26.3,15.9,20.4-.6,20.4-.6l-15.4,4.9s18.8,13.8,24.1,13.9c5.2,0,18.4-1.2,19.1-1.3-11.5-11.1-38.9-31.7-60.8-41.2-13.8-6-25.2-6.1-32.7-4.9Z"/>
      <path id="Path_1001" class="cls-21" d="M700,720.6c-2.1-1.7-4.2-3.4-6.3-5-1.1-.8-2.1-1.6-3.2-2.4-1.1-.8-2.2-1.6-3.3-2.4-2.2-1.6-4.4-3.1-6.7-4.5s-4.5-2.9-6.9-4.2c-1.2-.7-2.3-1.3-3.5-2s-2.4-1.3-3.6-1.9c-1.2-.6-2.4-1.2-3.6-1.7-.6-.3-1.2-.5-1.9-.8-.3-.1-.6-.2-1-.3-.2,0-.3,0-.5-.1-.2,0-.3,0-.5,0,.2,0,.3,0,.5,0,.2,0,.3.1.5.2.3.1.6.3.9.4.6.3,1.2.6,1.8.9,1.2.6,2.3,1.3,3.5,2s2.3,1.4,3.4,2.1,2.3,1.4,3.4,2.2c4.5,2.9,8.8,6,13.1,9.2,1.1.8,2.1,1.6,3.2,2.4,1.1.8,2.1,1.6,3.2,2.4,2.1,1.6,4.2,3.3,6.2,5s4.1,3.4,6.2,5,4.2,3.3,6.4,4.9c-3.4-4.1-7.3-8-11.4-11.4Z"/>
      <path id="Path_1002" class="cls-35" d="M815.7,611.8c-1.9-.8-4-1.2-6-.9-22.1,1.8-43.2,18.9-53.6,30.2-10.5,11.5-8.3,31.3-8.2,32.2l-3-15.2c-15.2,20.3-14.6,46.7-14.6,46.7l-4.4-9.5c-3.1,9.1-1.6,37.2-1.6,37.2,19.6-3.6,31.9-18.7,32.3-19.2-3,1.7-6.6,1.5-9.4-.4,30.3-6.6,35.2-44,40.6-57.9s15.6-24.1,26.6-33.2c5.1-4.2,5-6.8,3.4-8.5-.6-.6-1.3-1.1-2.1-1.4Z"/>
      <path id="Path_1003" class="cls-19" d="M764.9,659.9c-12.8,18.6-40.5,72.6-40.5,72.6,19.6-3.6,31.9-18.7,32.3-19.2-3,1.7-6.6,1.5-9.4-.4,30.3-6.6,35.2-44,40.6-57.9s15.6-24.1,26.6-33.2c5.1-4.2,5-6.8,3.4-8.5-26.6,7.7-41.1,29.6-52.9,46.7Z"/>
      <path id="Path_1004" class="cls-32" d="M775,645.7l-2.3,2.9c-.8,1-1.5,2-2.2,3l-1.1,1.5-1.1,1.5c-2.9,4-5.7,8.1-8.5,12.3s-5.3,8.4-7.9,12.6-5.1,8.6-7.5,12.9-4.8,8.7-7.1,13.1-4.5,8.9-6.7,13.3-4.2,9-6.2,13.6c4.7-8.7,9.5-17.4,14.3-26.1,2.4-4.3,4.9-8.6,7.4-12.9l3.7-6.4c1.3-2.1,2.5-4.3,3.8-6.4,2.5-4.3,5.1-8.5,7.8-12.6l1-1.6,1-1.6c.7-1,1.3-2.1,2-3.1,1.4-2.1,2.7-4.1,4.1-6.2,5.5-8.2,11.4-16.2,17.7-23.9-3.5,3.5-6.8,7.2-10,11.1-.8,1-1.6,1.9-2.3,2.9Z"/>
      <path id="Path_1005" class="cls-4" d="M792.1,711.4c-8.7-4.4-18.4-6.2-28.1-5.2-14.2,1.4-16.7,9.5-16.9,10l.5-7.3c-11.8,8.3-14.7,17.7-15.1,21.6-.1.6,0,1.3.2,1.9,8.1,8.1,29.4-.8,29.4-.8l-3.4-5.9s7.4,4.5,20.1,5.3c11.8.7,23,15.9,26.5,8.5.3-.6.5-1.2.6-1.9,2.6-11.4-11.1-24.7-13.8-26.1Z"/>
      <path id="Path_1006" class="cls-32" d="M772.5,715.9c-19.3-2.2-33.5,8.4-40,14.5-.1.6,0,1.3.2,1.9,8.1,8.1,29.4-.8,29.4-.8l-3.4-5.9s7.4,4.5,20.1,5.3c11.8.7,23,15.9,26.5,8.5-4.7-8.4-14.8-21.4-32.8-23.5Z"/>
      <path id="Path_1007" class="cls-16" d="M765.1,715c-.5,0-1.1,0-1.6,0h-1.6c0,0-1.6.2-1.6.2-2.2.3-4.3.7-6.4,1.2-2.1.6-4.2,1.3-6.1,2.2-2,.9-3.9,1.9-5.7,3.1-.5.3-.9.6-1.3.9s-.9.6-1.3,1c-.9.7-1.7,1.4-2.5,2.1s-1.6,1.5-2.3,2.3c-.2.2-.4.4-.5.6-.2.2-.4.4-.5.6s-.3.4-.5.6c-.2.2-.3.4-.4.7.3-.4.7-.8,1.1-1.2.2-.2.4-.4.6-.5s.4-.4.6-.5c.8-.7,1.6-1.4,2.5-2,1.7-1.3,3.5-2.4,5.3-3.5,3.7-2.1,7.6-3.7,11.6-4.8,2-.6,4.1-1,6.2-1.3,2.1-.3,4.2-.5,6.3-.5,4.3,0,8.5.3,12.7,1.1-4.1-1.4-8.4-2.2-12.7-2.4-.5,0-1.1,0-1.6,0Z"/>
      <path id="Path_1008" class="cls-21" d="M678.8,672.8c-10.9-11.1-22.5-21.6-34.6-31.4-.4-.3-1-.3-1.3.2-.3.4-.3,1,.2,1.3h0c12,9.8,23.5,20.2,34.4,31.2,15.7,16.1,34.6,38.8,35.5,55.9,0,.5.4.9.9.9h0c.5,0,.9-.5.9-1-.4-7.8-4.4-17.4-11.9-28.3-7.2-10.3-15.3-19.9-24.2-28.7Z"/>
      <path id="Path_1009" class="cls-39" d="M645,634.7c-4.1-.7-8,2-8.7,6.1-.7,4.1,2,8,6.1,8.7,4.1.7,8-2,8.7-6.1,0,0,0,0,0,0,.7-4.1-2-8-6.1-8.7Z"/>
      <path id="Path_1010" class="cls-21" d="M754.2,622.7c-9,8.3-16.5,19.2-22.2,32.5-4.8,11.6-8.3,23.6-10.3,36-2.3,13.6-3.3,27.4-2.9,41.3,0,.5.4.9.9.9h0c.5,0,.9-.5.9-1,0,0,0,0,0,0-.4-13.7.6-27.4,2.9-40.8,2-12.2,5.4-24.2,10.2-35.6,5.6-13,12.9-23.8,21.7-31.9.4-.4.3-1,0-1.3-.3-.3-.9-.3-1.2,0h0Z"/>
      <path id="Path_1011" class="cls-39" d="M759,613.4c-4.1-.7-8,2-8.7,6.1-.7,4.1,2,8,6.1,8.7,4.1.7,8-2,8.7-6.1,0,0,0,0,0,0,.7-4.1-2-8-6.1-8.7Z"/>
      <path id="Path_1012" class="cls-21" d="M807.2,675.3c-8.9.7-18.7,4.3-29.1,10.7-9.3,5.9-17.9,12.8-25.7,20.6-9.2,9-17.8,18.7-25.5,29-.3.4-.2,1,.3,1.3.4.3,1,.2,1.3-.2,7.7-10.2,16.1-19.8,25.3-28.8,7.7-7.7,16.2-14.5,25.4-20.3,10.1-6.3,19.6-9.8,28.2-10.5.5,0,.9-.5.8-1,0-.5-.5-.9-1-.8h0Z"/>
      <path id="Path_1013" class="cls-39" d="M813.4,668.2c-4.1-.7-8,2-8.7,6.1-.7,4.1,2,8,6.1,8.7,4.1.7,8-2,8.7-6.1.7-4.1-2-8-6.1-8.7,0,0,0,0,0,0Z"/>
      <path id="Path_1014" class="cls-36" d="M180.2,573.8s6-15.6,3.5-24.8-9.1-20-9.1-20l-6.7,6.4s1.8-12.9-.4-17.5-37.7-28.2-44-28.4c-.2,0-.5,0-.7.1-5.4,1.6-2.1,24.7,2.3,29.7l24.9,2.5-21.1,4.4,1,4.6h26.6c0,.1-20.7,7.9-20.7,7.9l10.7,23.7,19.3,5.2-15.4,3s.2,20.4,3.3,25.2,11.9,16.3,11.9,16.3l-13.2-8.9s3,28,12.5,31.6c0,0,.1,0,.2,0,0,0,24.3-29,22.5-73.1l-7.6,11.9Z"/>
      <path id="Path_1015" class="cls-37" d="M122.8,489.5c-5.4,1.6-2.1,24.7,2.3,29.7l24.9,2.5-21.1,4.4,1,4.6h26.6c0,.1-20.7,7.9-20.7,7.9l10.7,23.7,19.3,5.2-15.4,3s.2,20.4,3.3,25.2,11.9,16.3,11.9,16.3l-13.2-8.9s3,28,12.5,31.6c11.1-32.8,11-57.4,4-84.6-5.7-22-32.4-48.2-46.3-60.8Z"/>
      <path id="Path_1016" class="cls-21" d="M174.7,566.3c-.4-1.9-.8-3.8-1.3-5.7l-.4-1.4-.4-1.4c-.3-.9-.6-1.9-1-2.8-.7-1.8-1.5-3.6-2.4-5.4l-.3-.6-.4-.6c-.2-.4-.5-.8-.8-1.3s-.5-.8-.8-1.2c-.3-.4-.6-.8-1-1.1,0,0,.2.2.2.3,0,.1.1.2.2.3.1.2.3.4.4.6.2.4.5.8.7,1.3s.4.9.6,1.3l.3.7.3.7c.7,1.8,1.4,3.6,1.9,5.5.3.9.5,1.8.8,2.8l.3,1.4.3,1.4c.1.5.2.9.3,1.4l.3,1.4c.2.9.3,1.9.5,2.8.5,3.8.8,7.6.9,11.5,0,1,0,1.9,0,2.9s0,1.9,0,2.9,0,1.9,0,2.9l-.2,2.9c-.3,3.8-.6,7.7-1.1,11.5-.5,3.8-1.2,7.6-1.9,11.4-1.5,7.6-3.4,15.1-5.4,22.6,2.9-7.2,5.3-14.7,7.1-22.2l.7-2.9.3-1.4.3-1.4.5-2.9c.2-1,.3-1.9.5-2.9l.2-1.4c0-.5.1-1,.2-1.5l.4-2.9c.1-1,.2-1.9.3-2.9s.2-1.9.2-2.9c.2-3.9.3-7.8,0-11.7-.2-3.9-.6-7.8-1.3-11.6Z"/>
      <path id="Path_1017" class="cls-36" d="M133,582.9l-.6,12.7s-2.9-19.6-4.8-22.1-19-17.3-25.6-18c-5.7-.6-17.6.6-20.8,1h0c-.5,0-.8,0-.8,0l10,14.3,17.8,2.4-14,2.5s16.8,23.6,18.6,24.5,19.2,6.9,19.2,6.9l-16.1-1.1s12.4,19.8,17.3,21.7c4.8,1.9,17.6,5.6,18.2,5.8,0,0,0,0,0,0,0,0,1.4-19.8-2.7-29.2s-15.7-21.5-15.7-21.5Z"/>
      <path id="Path_1018" class="cls-37" d="M81.2,556.5h0c-.5,0-.8,0-.8,0l10,14.3,17.8,2.4-14,2.5s16.8,23.6,18.6,24.5,19.2,6.9,19.2,6.9l-16.1-1.1s12.4,19.8,17.3,21.7c4.8,1.9,17.6,5.6,18.2,5.8-6.6-14.5-24.6-43.7-41.5-60.6-10.6-10.6-21.2-14.8-28.6-16.5Z"/>
      <path id="Path_1019" class="cls-21" d="M140.9,611.9c-.7-1.1-1.4-2.3-2.1-3.4s-1.4-2.3-2.2-3.4c-1.5-2.2-3-4.5-4.5-6.7s-3.2-4.4-4.8-6.5c-.8-1.1-1.7-2.1-2.5-3.1-.9-1-1.7-2.1-2.6-3.1-.9-1-1.8-2-2.8-2.9-.5-.5-1-.9-1.5-1.4-.3-.2-.5-.4-.8-.6-.1-.1-.3-.2-.4-.3-.1-.1-.3-.2-.5-.2.2,0,.3.1.4.2.1.1.3.2.4.3.2.2.5.5.7.7.5.5.9,1,1.3,1.5.9,1,1.7,2.1,2.5,3.1s1.6,2.1,2.4,3.2,1.6,2.2,2.3,3.2c3.1,4.4,6,8.8,8.8,13.4.7,1.1,1.4,2.3,2.1,3.4s1.4,2.3,2.1,3.4c1.4,2.3,2.7,4.6,4,7s2.6,4.7,3.9,7,2.7,4.6,4.2,6.9c-1.7-5.1-3.8-10.1-6.4-14.8-1.3-2.4-2.6-4.7-4-7Z"/>
      <path id="Path_1020" class="cls-35" d="M307,540.9c-1.7-1.2-3.7-1.9-5.7-2.1-22.1-2.4-45.9,10.4-58.3,19.6-12.5,9.3-14,29.2-14.1,30v-15.5c-18.9,17.1-23.3,43.1-23.3,43.1l-2.5-10.1c-4.7,8.3-8.5,36.3-8.5,36.3,19.9.1,34.8-12.4,35.3-12.8-3.2,1.1-6.8.3-9.2-2.2,31-.8,42.8-36.6,50.7-49.3s19.9-20.8,32.4-27.6c5.7-3.2,6.2-5.8,4.9-7.7-.5-.7-1.1-1.3-1.8-1.8Z"/>
      <path id="Path_1021" class="cls-19" d="M248.1,578.7c-16.1,15.8-53.4,63.7-53.4,63.7,19.9.1,34.8-12.4,35.3-12.8-3.2,1.1-6.8.3-9.2-2.2,31-.8,42.8-36.6,50.7-49.3s19.9-20.8,32.4-27.6c5.7-3.2,6.2-5.8,4.9-7.7-27.6,2.5-45.9,21.3-60.8,35.9Z"/>
      <path id="Path_1022" class="cls-32" d="M260.6,566.6l-2.8,2.5c-.9.8-1.8,1.7-2.8,2.5l-1.4,1.3-1.4,1.3c-3.6,3.4-7.1,6.9-10.6,10.5s-6.8,7.2-10.2,10.9-6.6,7.5-9.8,11.3-6.4,7.6-9.4,11.6-6.1,7.8-9.1,11.8-5.9,8-8.6,12.2c6.3-7.7,12.6-15.3,19-22.9,3.2-3.8,6.4-7.6,9.7-11.3l4.9-5.6c1.6-1.9,3.3-3.7,4.9-5.5,3.3-3.7,6.6-7.3,10-11l1.3-1.4,1.3-1.3c.9-.9,1.7-1.8,2.6-2.7,1.7-1.8,3.4-3.6,5.2-5.3,7-7,14.2-13.8,21.9-20.1-4.1,2.8-8.1,5.8-11.9,9-1,.8-1.9,1.6-2.9,2.4Z"/>
      <path id="Path_1023" class="cls-4" d="M265,634.4c-7.7-5.9-17-9.5-26.6-10.4-14.2-1.3-18.2,6.2-18.4,6.6l1.8-7.1c-13.1,6-17.8,14.6-18.9,18.4-.2.6-.3,1.2-.2,1.9,6.4,9.4,29,4.8,29,4.8l-2.2-6.5s6.5,5.8,18.7,8.9c11.5,2.9,19.6,19.9,24.4,13.4.4-.5.7-1.1,1-1.7,4.7-10.7-6.3-26.3-8.6-28.2Z"/>
      <path id="Path_1024" class="cls-32" d="M245,635.1c-18.6-5.8-34.5,1.9-42,6.8-.2.6-.3,1.2-.2,1.9,6.4,9.4,29,4.8,29,4.8l-2.2-6.5s6.5,5.8,18.7,8.9c11.5,2.9,19.6,19.9,24.4,13.4-3-9.1-10.5-23.8-27.8-29.2Z"/>
      <path id="Path_1025" class="cls-16" d="M237.8,632.8c-.5-.1-1.1-.2-1.6-.3l-1.6-.2h-1.6c-2.2-.3-4.4-.3-6.5-.1-2.2.2-4.3.5-6.4,1-2.1.5-4.2,1.2-6.2,2-.5.2-1,.4-1.5.6s-1,.5-1.5.7c-1,.5-1.9,1-2.8,1.6-.9.6-1.8,1.2-2.7,1.8-.2.2-.4.3-.6.5s-.4.3-.6.5-.4.4-.6.5c-.2.2-.4.4-.5.6.4-.4.8-.7,1.3-.9.2-.1.4-.3.7-.4s.5-.3.7-.4c.9-.5,1.9-1,2.8-1.5,1.9-.9,3.9-1.7,5.9-2.4,4-1.4,8.1-2.2,12.3-2.6,2.1-.2,4.2-.2,6.3,0,2.1.1,4.2.3,6.3.7,4.2.8,8.3,1.9,12.3,3.5-3.7-2.2-7.8-3.8-12-4.7-.6-.1-1.1-.2-1.6-.3Z"/>
      <path id="Path_1026" class="cls-21" d="M244.6,536.6c-10.4,6.4-19.8,15.8-27.9,27.8-6.9,10.4-12.6,21.7-16.9,33.4-4.8,12.9-8.4,26.3-10.6,40,0,.5.3,1,.8,1.1h.1c.5,0,.9-.3.9-.8,2.2-13.5,5.7-26.8,10.5-39.6,4.2-11.6,9.8-22.7,16.7-33,8-11.7,17.2-20.9,27.3-27.2.4-.3.6-.8.3-1.3s-.8-.6-1.3-.3c0,0,0,0,0,0h0Z"/>
      <path id="Path_1027" class="cls-39" d="M251,528.4c-3.9-1.5-8.2.5-9.7,4.3-1.5,3.9.5,8.2,4.3,9.7,3.9,1.5,8.2-.5,9.7-4.3,1.5-3.9-.4-8.2-4.3-9.7,0,0,0,0,0,0Z"/>
      <path id="Path_1028" class="cls-21" d="M286.7,598.2c-8.9-1-19.2.7-30.6,5.1-10.2,4.1-20,9.3-29.1,15.4-10.8,7.1-21,15-30.5,23.7-.4.4-.3,1,0,1.3.3.3.9.3,1.3,0,9.5-8.6,19.6-16.5,30.3-23.5,9-6.1,18.7-11.2,28.8-15.2,11.1-4.3,21.1-5.9,29.7-5,.5,0,1-.3,1.1-.8,0-.5-.3-1-.8-1.1,0,0,0,0,0,0h0Z"/>
      <path id="Path_1029" class="cls-39" d="M294.1,592.4c-3.9-1.5-8.2.5-9.7,4.3-1.5,3.9.5,8.2,4.3,9.7,3.9,1.5,8.2-.5,9.7-4.3,1.5-3.9-.5-8.2-4.3-9.7,0,0,0,0,0,0Z"/>
      <path id="Path_1030" class="cls-21" d="M145.4,591.6c-4.3-11.8-10-23-16.9-33.4-8.1-12-17.5-21.3-27.9-27.8-.4-.3-1-.1-1.3.3-.3.4-.1,1,.3,1.3,10.2,6.3,19.4,15.5,27.3,27.2,6.8,10.3,12.4,21.4,16.7,33,4.8,12.8,8.3,26.1,10.5,39.6,0,.5.5.8.9.8,0,0,0,0,.1,0,.5,0,.9-.5.8-1.1-2.2-13.6-5.8-27-10.6-40Z"/>
      <circle id="Ellipse_2" class="cls-39" cx="96.9" cy="529.2" r="7.5"/>
      <path id="Path_1031" class="cls-31" d="M828.3,732.4s-12.7-19.1-19.5-21.2-20-18.3-28.9-25.5c-5.5-4.4-16.4-7.3-24-8.8-4.8-1-8.3-1.4-8.3-1.4-31.9,11-57.8,56.9-57.8,56.9,0,0,0,0,0,0,13.8,13.1,50.4,24.4,82.7,31.1,28.5,6,53.6,8.4,56.6,5.4,3.4-3.4,2.9-13.5,1.8-22.2-1-7.7-2.6-14.3-2.6-14.3Z"/>
      <path id="Path_1032" class="cls-34" d="M808.8,711.2c-6.8-2.1-20-18.3-28.9-25.5-5.5-4.4-16.4-7.3-24-8.8,11.5,13.1,29.4,33.3,34.6,44.5,5.4,11.6-8.2,30.7-17.9,42.2,28.5,6,53.6,8.4,56.6,5.4,6.4-6.4-.8-36.5-.8-36.5,0,0-12.7-19.1-19.5-21.2Z"/>
      <path id="Path_1033" class="cls-29" d="M747.1,682.2c-5.7-1.3-19.7,10.2-27.4,19-1.8,2,2.5,4.3,5.2,3.5,21.4-6.1,36.3,7.8,38.3-.6,2.3-9.7-7.4-20-16.1-21.9Z"/>
      <path id="Path_1034" class="cls-18" d="M816.7,753.1c-59.3,19.9-125.2-19.7-126.8-20.7,13.8,13.1,50.4,24.4,82.7,31.1,28.5,6,53.6,8.4,56.6,5.4,3.4-3.4,2.9-13.5,1.8-22.2l-14.2,6.3Z"/>
      <path id="Path_1035" class="cls-31" d="M211.1,615.8c-3.6-4.7-13.2-11.7-20.2-16.6-4.8-3.3-11.1-3.4-16-.3-7.1,4.4-17.1,11-22.9,16-2.6,2.3-4.9,4.9-6.8,7.9-4.2,6.8-2.1,15.7,4.7,19.9.2.1.4.2.6.3,10,5.7,23,9.3,29.3,10.9,2.5.6,5.1.6,7.6-.1h.1s18.8-5.5,18.8-5.5c7.2-2.1,11.6-9.2,10.3-16.5-1.1-6-2.9-12.5-5.6-16Z"/>
      <path id="Path_1036" class="cls-34" d="M211.1,615.8c-3.6-4.7-13.2-11.7-20.2-16.6-1.8-1.2-3.9-2.1-6-2.4,4.5,9.5,9.6,21.6,10.8,29.4,1.1,7.4-3.3,18.5-8,27.5l18.8-5.5c7.2-2.1,11.6-9.2,10.3-16.5-1.1-6-2.9-12.5-5.6-16Z"/>
      <path id="Path_1037" class="cls-29" d="M178.7,600.4c-3,1.4-12.3,5-15.7,11.9-1.5,3,.9,6.1,3.8,4.7,4.9-2.4,13.8-3.2,15.9-5.5,3.6-4,.2-13-4-11.1Z"/>
      <path id="Path_1038" class="cls-31" d="M314,744.5c-3.3-4.3-12.2-10.8-18.6-15.2-4.4-3-10.2-3.1-14.7-.3-6.5,4.1-15.7,10.1-21,14.7-2.4,2.1-4.5,4.6-6.2,7.3-3.9,6.3-1.9,14.5,4.3,18.3.2.1.3.2.5.3,9.2,5.2,21.1,8.5,27,10,2.3.6,4.7.5,7-.1h.1s17.3-5,17.3-5c6.6-1.9,10.7-8.5,9.4-15.2-1-5.5-2.6-11.5-5.1-14.8Z"/>
      <path id="Path_1039" class="cls-34" d="M314,744.5c-3.3-4.3-12.2-10.8-18.6-15.2-1.7-1.1-3.6-1.9-5.6-2.2,4.1,8.8,8.8,19.9,10,27,1.1,6.8-3.1,17-7.4,25.3l17.3-5c6.6-1.9,10.7-8.5,9.4-15.2-1-5.5-2.6-11.5-5.2-14.7Z"/>
      <path id="Path_1040" class="cls-29" d="M284.2,730.3c-2.8,1.3-11.3,4.6-14.5,11-1.3,2.7.8,5.6,3.5,4.3,4.5-2.2,12.7-3,14.6-5.1,3.3-3.7.2-11.9-3.7-10.2Z"/>
      <path id="Path_1041" class="cls-31" d="M549,761c-1.7-2.3-6.4-5.7-9.8-8-2.3-1.6-5.3-1.6-7.7-.2-3.8,2.3-7.5,4.9-11,7.7-1.3,1.1-2.4,2.4-3.3,3.8-2,3.3-1,7.6,2.3,9.6,0,0,.2.1.3.2,4.5,2.3,9.3,4.1,14.2,5.3,1.2.3,2.5.3,3.7,0h0s9.1-2.7,9.1-2.7c3.5-1,5.6-4.4,5-8-.5-2.9-1.4-6-2.7-7.7Z"/>
      <path id="Path_1042" class="cls-34" d="M549,761c-1.7-2.3-6.4-5.7-9.8-8-.9-.6-1.9-1-2.9-1.1,2.2,4.6,4.6,10.4,5.2,14.2.6,3.6-1.6,8.9-3.9,13.3l9.1-2.6c3.5-1,5.6-4.4,5-8-.5-2.9-1.4-6-2.7-7.7Z"/>
      <path id="Path_1043" class="cls-29" d="M533.3,753.5c-1.5.7-6,2.4-7.6,5.8-.7,1.4.4,3,1.8,2.3,2.4-1.2,6.7-1.6,7.7-2.7,1.8-1.9,0-6.3-1.9-5.3Z"/>
      <path id="Path_1044" class="cls-9" d="M390.2,768.7c-17.5-.8-19.5,13.8-19.5,13.8,0,0-2.9-6.8-13.4-12.7s-21.2,8-21.2,8c-24.8-33.8-51.7,3.3-51.7,3.3l128.3,5.8s-5-17.3-22.6-18.1Z"/>
      <path id="Path_1045" class="cls-30" d="M408.8,777.5c-4.4-5.9-11.2-9.4-18.5-9.7-9.4-.4-14.5,3.5-17.1,6.9-1.2,1.6-2.1,3.4-2.8,5.3-1.7-2.5-5.4-7-12.6-11.1-4.6-2.6-10-2-15.5,1.8-2.3,1.6-4.3,3.4-6.1,5.5-6.9-9.1-14.7-13.7-23.1-13.7h0c-16.2,0-28.8,17.2-29.3,17.9-.3.4-.2,1,.2,1.3.4.3,1,.2,1.3-.2h0c2.4-3.1,5.1-6,8.2-8.6,4.6-3.9,11.7-8.5,19.7-8.6h0c8,0,15.5,4.7,22.3,13.9.2.2.4.4.7.4.3,0,.6-.1.7-.4,1.9-2.3,4.1-4.3,6.5-6,5-3.4,9.5-4,13.5-1.7,10,5.7,13,12.2,13,12.3.2.5.7.7,1.2.4.3-.1.5-.4.5-.7.5-2.5,1.5-4.8,3-6.8,3.4-4.4,8.6-6.5,15.5-6.2,6.8.2,13.1,3.5,17.2,9,2,2.6,3.6,5.4,4.6,8.5.1.5.6.8,1.1.6.5-.1.8-.6.6-1.1-1.1-3.3-2.7-6.3-4.8-9.1h0Z"/>
      <path id="Path_1046" class="cls-9" d="M228.7,683.8c-12.5-.6-13.8,9.8-13.8,9.8,0,0-2.1-4.8-9.5-9s-15.1,5.7-15.1,5.7c-17.6-24.1-36.7,2.3-36.7,2.3l91.3,4.1s-3.6-12.3-16.1-12.9Z"/>
      <path id="Path_1047" class="cls-30" d="M228.7,683.2c-9.8-.5-13.1,5.7-14.1,8.7-2.3-3.3-5.4-6-9-7.9-3.3-1.9-7.1-1.4-11,1.3-1.6,1.1-3.1,2.4-4.4,3.9-4.9-6.5-10.4-9.7-16.4-9.7h0c-11.5,0-20.5,12.2-20.8,12.7-.2.3-.2.7.1.9.3.2.7.2.9-.1,0,0,0,0,0,0,1.7-2.2,3.7-4.3,5.8-6.1,3.3-2.8,8.3-6.1,14-6.1h0c5.7,0,11.1,3.3,15.8,9.9.1.2.3.3.5.3.2,0,.4,0,.5-.2,1.3-1.6,2.9-3.1,4.6-4.3,3.5-2.4,6.8-2.8,9.6-1.2,7.1,4.1,9.2,8.7,9.2,8.7.1.3.5.5.9.3.2,0,.3-.3.4-.5,0-.4,1.5-9.8,13.2-9.2,4.8.2,9.3,2.5,12.2,6.4,1.4,1.8,2.5,3.9,3.3,6,0,.3.3.5.6.5.4,0,.6-.3.6-.6,0,0,0-.1,0-.2,0-.1-3.9-12.8-16.7-13.4Z"/>
      <path id="Path_1048" class="cls-9" d="M747.1,735.2c-20.2-4.2-24.8,15.4-24.8,15.4,0,0-2.3-9.8-13.5-19.8s-25.9,7.2-25.9,7.2c-23.4-50.9-60.5-4.7-60.5-4.7l148.1,30.8s-3.1-24.7-23.3-28.9Z"/>
      <path id="Path_1049" class="cls-30" d="M767.4,750.8c-4.5-9.1-11.4-14.9-20-16.7-11-2.3-17.6,2.3-21.1,6.5-1.6,2-3,4.2-3.9,6.5-2.9-6.6-7.3-12.5-12.7-17.2-2.6-2.4-6.1-3.7-9.6-3.4-3.9.3-8.1,2.1-12.6,5.6-1.5,1.2-2.9,2.4-4.2,3.8-6.7-13.9-15.2-21.6-25.3-22.9-7.8-1-16.6,2.1-25.4,8.9-4.1,3.1-7.8,6.7-11,10.6-.4.5-.3,1.2.2,1.6.5.4,1.2.3,1.6-.2,3.2-3.8,6.7-7.2,10.6-10.2,10.5-8.1,18.7-9.1,23.7-8.4,9.5,1.2,17.7,8.9,24.2,23.1.3.6.9.8,1.5.6.2,0,.3-.2.4-.3,0,0,8.1-9.3,16.4-9.9,2.9-.2,5.8.8,7.9,2.8,10.8,9.6,13.1,19.1,13.2,19.2.1.5.6.9,1.1.9h0c.5,0,1-.4,1.1-.9.9-3.3,2.5-6.3,4.6-8.9,4.6-5.4,10.9-7.3,18.8-5.7,8,1.7,14.2,6.8,18.4,15.4,1.9,4,3.3,8.2,4,12.6,0,.6.6,1,1.1,1,0,0,0,0,.1,0,.6,0,1.1-.6,1-1.3,0,0,0,0,0,0-.7-4.6-2.1-9.1-4.2-13.2h0Z"/>
      <path id="Path_1050" class="cls-34" d="M429.8,241.6c-42.9-.5-105,.6-155,8.9-11.3,11.8-22.7,24.6-34.2,38.2-7.2,8.6-14.5,17.5-21.7,26.6,14.7,11.3,36.4,21.4,66.9,20.2,67-2.6,84.5-25.2,121.3-3.4,25.6,15.1,59.3,29.5,85.1,35.9-4.4-11.3-8.9-22.3-13.5-33-15.4-36-31.9-68.4-49-93.5Z"/>
      <path id="Path_1051" class="cls-31" d="M339.3,195.6c-30.2,18.3-64.3,52.4-98.6,93.2,8.7,8.3,20.4,14.5,35.8,16.4,65.9,8,90.5-21,124.5,10.1,26.8,24.5,54.6,29.7,77.9,19.8-41.7-97.5-91.5-168.6-139.6-139.5Z"/>
      <path id="Path_1052" class="cls-34" d="M743.7,503.4c-42.3-20.8-110.6-49.9-168.8-53.8-11.9,9.9-24.1,20.7-36.4,32-8.5,7.8-17,15.9-25.4,24.1,14.6,15.9,37.3,31.3,68.5,30.2,62-2.2,59.8-3.3,101.8,24.4,25.2,16.6,56.4.6,77.3-14.9-2.4-6.3-4.9-12.6-7.4-18.8-3.2-7.9-6.4-15.6-9.6-23.1Z"/>
      <path id="Path_1053" class="cls-31" d="M673.9,398.4c-25.3-8.6-79.5,31.8-135.3,83.3,17.6,14.3,41.7,29.4,60.1,23.3,32.6-10.9,54.3,2.9,68.8,20.3,13.1,15.8,61.4,17.8,85.9,1.3-25.9-64.1-54.7-119.7-79.5-128.1Z"/>
      <path id="Path_1054" class="cls-7" d="M353,443.6c-2.5,1.2-7.9,10.4-7.5,16.8s18.8,8.5,18.8,8.5c0,0,15.3-17.9,15.3-18,.7-5.8-24.1-8.5-26.6-7.3Z"/>
      <path id="Path_1055" class="cls-28" d="M338,430.8c-1.5-1.9-4.3-2.1-6.1-.6-1.9,1.5-2.1,4.3-.6,6.1,0,0,0,0,0,0l259.8,310.7c1.5,1.9,4.3,2.1,6.1.6s2.1-4.3.6-6.1c0,0,0,0,0,0l-259.8-310.7Z"/>
      <path id="Path_1056" class="cls-12" d="M380.8,436.2c-3.6-2.5-17.9-1-19.9.3,0,0-12.6,5-14.5,7.6s-3.1,8-3.2,11,2.9,3.3,5,1.1c1.5-1.7,2.4-3.8,2.6-6.1,0,0,4.2-3.6,5.6-3.8s8,3.2,11,4,10.4,2.2,12.2.7,4.8-12.3,1.2-14.8Z"/>
      <path id="Path_1057" class="cls-12" d="M350.2,453.2c-.8.5-5.3,3.4-7.6,5.3-1.1.8-1.3,2.4-.4,3.5.2.3.5.6.9.7.2,0,.3.1.5.2,2.3.6,7.6-4.5,8.2-6.7s-.4-3.6-1.6-3Z"/>
      <path id="Path_1058" class="cls-12" d="M351,458.8c-3.9,3.8-7.4,4.1-7.4,4.1.2,1.3.7,2.5,1.5,3.4,1.2,1.1,4.2,2.4,5.2,1.9s7-8,7.2-9.7-2.7-3.6-6.6.2Z"/>
      <path id="Path_1059" class="cls-12" d="M355.9,461.8c-3.1,4.5-6.4,5.5-6.4,5.5.4,1.2,1.2,2.3,2.2,3.1,1.4.9,4.5,1.5,5.5.8s5.3-9.2,5.2-10.9-3.3-3-6.4,1.5Z"/>
      <path id="Path_1060" class="cls-12" d="M360.6,464.9c-1.1,4.4-3.5,6.1-3.5,6.1.7.8,1.6,1.4,2.6,1.8,1.3.3,4,0,4.5-.9s1.6-8.7,1-10-3.4-1.4-4.6,3Z"/>
      <path id="Path_1061" class="cls-28" d="M424.6,710.6c-7.9-5.1-8-15.4-8-15.4,0,0-16.6,7.7-24.5,13.9s-31.7,12.6-35.6,14.5c-.5.3-1,.6-1.4,1.1-2.4,2.8-1.9,8.9-1.9,8.9,0,0,72.8,6.3,94.5-1.4,1.4-3.2,2.1-6.7,2.1-10.2,0-4.8-3.2-11.2-7.9-17.5,0,0-9.4,11.2-17.2,6.1Z"/>
      <path id="Path_1062" class="cls-9" d="M355.1,724.7c-2.4,2.8-1.9,8.9-1.9,8.9,0,0,72.8,6.3,94.5-1.4,1.4-3.2,2.1-6.7,2.1-10.2-16.3,1.3-45.8,4-50.6,4.1s-30.6-.9-44-1.4Z"/>
      <path id="Path_1063" class="cls-15" d="M449.7,721.2c-6.5.5-15.1,1.2-23.4,2-12.5,1.1-24.3,2.1-27.2,2.1-5.6,0-37.6-1.1-44-1.4h-.4l-.2.3c-2.5,3-2.1,9.1-2.1,9.4v.6s.6,0,.6,0c.2,0,18.5,1.6,39.2,2.2,5.6.2,10.8.2,15.7.2,19.3,0,32.7-1.3,40-3.9h.3c0,0,.1-.3.1-.3,1.5-3.3,2.2-6.9,2.1-10.5v-.8h-.8ZM447.2,731.5c-8.9,3.1-27.9,4.3-54.9,3.5-18.5-.5-35.1-1.9-38.5-2.1,0-1.5,0-5.3,1.6-7.5,7.1.3,38.2,1.5,43.7,1.4,3,0,14.8-1.1,27.3-2.1,8-.7,16.2-1.4,22.6-1.9,0,3-.7,6-1.8,8.8h0Z"/>
      <path id="Path_1064" class="cls-15" d="M403.8,700.9c-.4-.7-1.3-.9-2-.4-.7.4-.9,1.3-.4,2,0,0,0,0,0,0l5.1,7.1c.5.7,1.4.8,2,.4.7-.5.8-1.4.4-2,0,0,0,0,0,0l-5.1-7.1Z"/>
      <path id="Path_1065" class="cls-15" d="M398.1,703.4c-.5-.7-1.4-.8-2-.3h0c-.7.5-.8,1.4-.3,2l5.1,7.1c.5.7,1.4.8,2,.3.7-.5.8-1.4.3-2l-5.1-7.1Z"/>
      <path id="Path_1066" class="cls-15" d="M392.3,706.5c-.5-.7-1.4-.8-2-.3,0,0,0,0,0,0h0c-.7.5-.8,1.4-.3,2l5.1,7.1c.5.7,1.4.8,2,.4.7-.5.8-1.4.4-2,0,0,0,0,0,0l-5.1-7.1Z"/>
      <path id="Path_1067" class="cls-15" d="M386.5,709.3c-.4-.7-1.3-.9-2-.4-.7.4-.9,1.3-.4,2,0,0,0,0,0,0l5.1,7.1c.4.7,1.3.9,2,.4.7-.4.9-1.3.4-2,0,0,0,0,0,0l-5.1-7.1Z"/>
      <path id="Path_1068" d="M419.6,676.3l-3.7,19.4c7.2,44.8,25.9,9.4,25.9,9.4l-1.9-31-20.2,2.3Z"/>
      <path id="Path_1069" class="cls-5" d="M489.4,547.2s49.1-156.7,1.3-184c-8.6-4.9-16.4-6.2-26.1-2.7-7.5,2.6-14.3,7.2-20.5,12.3-6.3,5.3-12.3,11.1-17.8,17.2-1.6,1.7-2.7,3.8-3.4,6-1.1,3.7-.8,7.6-.6,12,.4,8.9,1,17.7,1.6,26.5,1.9,24.5,4.5,48.9,8.7,73.1,3.5,20.2,7.2,42.9,17.8,60.6,1.4,2.5,3.2,4.8,5.2,6.9,27.9,27.2,139.6,78.2,139.6,78.2l15-24.4s-65.7-64.7-102.6-77.7l-18.2-4.1Z"/>
      <path id="Path_1070" class="cls-3" d="M494.8,348.7c-28.9,5.3-56.7,52.5-56.7,52.5l-.8,1.2c-7.7,12.3-71,114.6-70.5,128.7.6,15,50.1,160.2,50.1,160.2l23.6-7.6s-7.5-112.6-9.8-122.5-16.5-33.3-16.5-33.3c14.1-4.4,89.3-78.9,101.9-109.2s7.4-75.3-21.5-70Z"/>
      <path id="Path_1071" class="cls-39" d="M548.7,206.8c-10-9.7-19.8-25.6-23.4-31.8-1-1.6-1.5-2.6-1.5-2.6-5.1-16.1-42.6-10.7-42.6-10.7-6,1.1-37.4,14.5-43.8,20.8-5,4.8-7.6,15.8-8.5,20.5-.3,1.3-.4,2.2-.4,2.2,13.8,56.2,97,187.8,97,187.8,3.2,3.6,7.8,5.8,12.6,6.1,21,1.6,51.1-25.1,57.6-34.6,7.9-11.7,4.5-35.7-2.7-64.6s-31.8-80.8-44.3-93Z"/>
      <path id="Path_1072" class="cls-11" d="M522.9,170.3c-6.1-10.8-29.1-9.8-38.1-8.9-2.8.3-5.6.9-8.3,1.8-10.8,3.8-33.7,14.1-39.1,19.4-5,4.9-7.6,15.8-8.5,20.5,11.9,2.5,29.6,5.8,39.2,6.3,1.8.2,3.7.1,5.5-.1,7.6-1.6,33.9-22.4,51.6-34.2-1-1.6-1.5-2.6-1.5-2.6-.2-.7-.5-1.4-.9-2.1Z"/>
      <path id="Path_1073" class="cls-28" d="M429,203c-.3,1.3-.4,2.2-.4,2.2,13.8,56.2,97,187.8,97,187.8,3.2,3.6,7.8,5.8,12.6,6.1-10.4-50-64.4-189.8-64.4-189.8-7.8-14.7-44.8-6.2-44.8-6.2Z"/>
      <path id="Path_1074" class="cls-22" d="M522.9,170.3c-40.4,2.6-52,29.9-54.7,39,1.8.2,3.7.1,5.5-.1,7.6-1.6,33.9-22.4,51.6-34.2-1-1.6-1.5-2.6-1.5-2.6-.2-.7-.5-1.4-.9-2.1Z"/>
      <path id="Path_1075" class="cls-28" d="M638.9,639.8c-4.2-2.2-11.3-2.4-18.9-1.1,0,0,5.5,13.4-2.6,17.9s-17.2-.1-17.2-.1c0,0-.9,18.1.9,27.9s-3.5,33.6-3.7,37.9c0,.6,0,1.2.3,1.7,1.4,3.4,6.9,5.8,6.9,5.8,0,0,39-60.8,42.3-83.4-2.2-2.7-4.9-4.9-8-6.5Z"/>
      <path id="Path_1076" class="cls-9" d="M638.9,639.8c-6.4,14.9-17.6,41.9-19.7,46.2s-14.8,26.3-21.5,37.9c1.4,3.4,6.9,5.8,6.9,5.8,0,0,39-60.8,42.3-83.4-2.1-2.7-4.9-4.9-7.9-6.5Z"/>
      <path id="Path_1077" class="cls-15" d="M639.2,639.2l-.7-.4-.3.7c-2.6,5.9-5.9,13.8-9,21.4-4.8,11.4-9.4,22.3-10.7,24.8-2.5,4.9-18.3,32.4-21.5,37.9l-.2.3v.3c1.6,3.6,7.1,6.1,7.4,6.1l.6.2.3-.5c.1-.2,9.9-15.4,19.9-33.3,13.5-24,21.1-41,22.4-50.4v-.3s-.1-.2-.1-.2c-2.2-2.8-5-5.1-8.2-6.7ZM604.3,728.8c-1.3-.6-4.6-2.5-5.8-4.8,3.5-6.1,18.8-32.7,21.3-37.6,1.3-2.6,5.9-13.4,10.7-24.9,3.1-7.3,6.2-14.8,8.7-20.6,2.6,1.5,5,3.4,6.9,5.7-3.3,21.3-38,76.3-41.8,82.3h0Z"/>
      <path id="Path_1078" class="cls-15" d="M609.4,670.4c-.1-.8-.8-1.3-1.6-1.2,0,0,0,0,0,0l-8.5,1.2c-.8.1-1.3.9-1.2,1.6.1.8.8,1.3,1.6,1.2l8.5-1.2c.8-.1,1.3-.8,1.2-1.6,0,0,0,0,0,0Z"/>
      <path id="Path_1079" class="cls-15" d="M607.4,675.3l-8.5,1.2c-.8,0-1.4.8-1.3,1.6,0,.8.8,1.4,1.6,1.3,0,0,0,0,.1,0l8.5-1.2c.8-.1,1.3-.9,1.2-1.7-.1-.8-.8-1.3-1.6-1.2h0Z"/>
      <path id="Path_1080" class="cls-15" d="M607.5,681.8l-8.5,1.2c-.8.1-1.3.8-1.2,1.6,0,0,0,0,0,0h0c.1.8.8,1.3,1.6,1.2h0s8.5-1.2,8.5-1.2c.8-.1,1.3-.8,1.2-1.6-.1-.8-.8-1.3-1.6-1.2h0Z"/>
      <path id="Path_1081" class="cls-15" d="M607.3,688.2l-8.5,1.2c-.8,0-1.4.8-1.3,1.6s.8,1.4,1.6,1.3c0,0,0,0,0,0l8.5-1.2c.8-.1,1.3-.8,1.2-1.6s-.8-1.3-1.6-1.2h0Z"/>
      <path id="Path_1082" class="cls-5" d="M369.2,240.9c-5.4,1.9-10,5.5-13.1,10.4-5.5,8.3-3.2,83.3,24.5,140.1,0,0-14.1,29.4-16.1,37.3s9,20.4,23.7,13.3c0,0,22.3-26.8,26-48.7s-21.1-136.1-45-152.4Z"/>
      <path id="Path_1083" d="M620,638.7l-9.7-9.6s-14,9.4-14.6,22.5l-.4,1.9,5,3.1s14.7,8.3,23.5-2.2-3.8-15.7-3.8-15.7Z"/>
      <path id="Path_1084" class="cls-39" d="M360.5,247.4c2.7,3.6,8.2-2.5,8.2-2.5,22.3-23.5,62-33.3,62-33.3l-1.7-8.6c-59.6,11.5-68.5,44.4-68.5,44.4Z"/>
      <path id="Path_1085" class="cls-12" d="M381.4,186.4c-7.6,5.5-25.5,20.8-19.2,38.5.4,1.1,12.4,27,12.4,27h.6c5.2-.2,40.1-2.1,42.3-27.1l-33-40.7s-1.3.8-3.2,2.2Z"/>
      <path id="Path_1086" class="cls-6" d="M362.2,224.9c.4,1.1,12.4,27,12.4,27h.6c8.9-20.4,14.2-46.9,11.7-66.3-7.6,5.5-31.1,21.6-24.8,39.3Z"/>
      <path id="Path_1087" class="cls-12" d="M379.7,174.1c-13.5-15.9-66.8,6.3-66.8,6.3,0,0,3.8,7.2,9.4,16.4,9.7,16.1,25.1,37.4,35.1,39.1,15.6,2.6,29.1-21.7,25.3-54.6-.2-2.6-1.2-5.1-2.9-7.2Z"/>
      <path id="Path_1088" class="cls-12" d="M333,218.5c.8,3,6,1.5,7.6-2.8l-8.7-10.5s.3,10.3,1.1,13.3Z"/>
      <path id="Path_1089" class="cls-8" d="M340.9,215c-.4-.1-.8,0-.9.4,0,0,0,0,0,0-.9,2.5-3.3,4-4.9,3.9-.7,0-1.2-.4-1.4-1.1-.7-2.9-1.1-13.1-1.1-13.2,0-.4-.4-.7-.8-.6-.3,0-.6.3-.6.7,0,.4.3,10.4,1.1,13.5.3,1.2,1.4,2.1,2.6,2.1h.2c2.1,0,4.9-1.8,6.1-4.9.1-.4,0-.7-.4-.9Z"/>
      <path id="Path_1090" class="cls-1" d="M345.2,187.7c-2.7-.3-5.3.2-7.7,1.4-2.6,1.6-4.1,5.5-4.7,8.2-.1.6.2,1.1.8,1.3.3,0,.6,0,.9-.2l3.7-3.9c1-1,2.1-1.9,3.4-2.6l4.3-2.2c.5-.4.6-1.1.2-1.6-.2-.3-.5-.4-.8-.4h0Z"/>
      <path id="Path_1091" class="cls-1" d="M337.2,197.7c-.6.4,0,2.2,1.1,4.2s2.7,3.2,3.3,2.8,0-2.2-1.1-4.2-2.7-3.2-3.3-2.8Z"/>
      <path id="Path_1092" class="cls-1" d="M358.5,212.7c-1.7.4-3.2,1.5-4.1,3-1.3,2.1-3.3,3.5-5.7,4.1-.6.1-1.1.3-1.5.7-.6.4-1.1,1.1-1.2,1.9-.3,1.3.3,3.6,3.9,4.1,7.1,1.1,13.3-5.6,12.1-11-.5-2-1.8-3-3.4-2.8Z"/>
      <path id="Path_1093" class="cls-9" d="M354.3,215.7c-1.3,2.1-3.3,3.5-5.7,4.1-.6.1-1.1.3-1.5.7,1.7,1,4.4,2.2,6.7.3,2.5-2,4-5.8,4.7-8.1-1.7.4-3.2,1.5-4.1,3Z"/>
      <path id="Path_1094" class="cls-8" d="M362.3,221.4c-.3-.2-.7,0-.9.2-3.3,5.7-7.3,5.6-7.5,5.6-.4,0-.6.3-.6.6,0,.3.3.6.6.6h0c.7,0,5.1-.3,8.6-6.2.2-.3,0-.7-.2-.9Z"/>
      <circle id="Ellipse_3" class="cls-7" cx="362.3" cy="200.5" r="8.1"/>
      <path id="Path_1095" class="cls-6" d="M312.9,180.4s3.8,7.2,9.4,16.4c3.6-3.3,8-8,9.3-12.7,0,0,18.2,7.9,28.4-3.3,0,0-3.9-1.1-5.5-3.4,0,0,11.5-1.1,18.1,5.9,2.8-2.7,5.2-5.8,7.2-9.2-13.4-15.9-66.8,6.3-66.8,6.3Z"/>
      <path id="Path_1096" class="cls-2" d="M301.4,197.3h0Z"/>
      <path id="Path_1097" class="cls-2" d="M350.3,152.7c-7.8,2.6-16.3.6-24,3.4-8.9,3.2-14.3,12.4-16.6,21.1-.2.6-.3,1.6-.6,2.8-1.1,6-3.1,17.8-7.8,17.3,1.7.2,12.7.9,20.5-14.8,0,0-.4,11.2-2.9,12.5s8.3-3.1,11.2-15.6c0,0,14.7,7.7,25.7,1.5-3-1-5.8-2.6-8.2-4.7,4-.9,17-3,23.9,5.2,0,0,20.5-3.6,17.7-14s-22.6-20.2-38.9-14.7Z"/>
      <path id="Path_1098" class="cls-2" d="M301.3,197.3h-.2s.2,0,.2,0Z"/>
      <path id="Path_1099" class="cls-28" d="M358,105.9c-25.8,1.4-35.4,13.5-35.4,13.5,0,0-10.2,10.7-13.8,20.9-2.9,8.2-4.6,16.7-4.2,30.6,0,1.5.1,3,.3,4.7.2,2,1.9,3.6,4,3.4.6,0,1.2-.2,1.7-.5,9.5-5.9,30.2-17.8,42.5-16.9,0,0,33.2,17,39.5,33.4,0,0-.4-1.5,1.9-4.1,4-4.7,7.7-12.2,10.2-17.8,3.9-8.7-.4-32.1-.4-32.1,0,0-20.6-36.4-46.3-35.1Z"/>
      <path id="Path_1100" class="cls-39" d="M361.1,107.6c-7.1,7.8-23.1,28.3-19.3,51l1.1-.2c-3.7-22.1,12.1-42.4,19-50,.3-.3.4-.4.4-.5l-.9-.7s-.2.2-.4.4Z"/>
      <path id="Path_1101" class="cls-39" d="M370,117.1c-1.9-5.1-3.8-8.8-3.8-8.8l-1,.5c0,.1,7.4,14.8,7.7,25.6s-6.2,27.7-6.3,27.9l1,.4s1.7-4.3,3.3-9.9c2.2-7.5,3.2-13.7,3-18.4-.2-5.8-2.3-12.5-4.1-17.2Z"/>
      <path id="Path_1102" class="cls-39" d="M383,119.1c-4.3-4-8.8-7.8-13.5-11.4l-.7.9c.3.2,26.2,19.3,28.3,32.4.9,5.4-.6,14.2-4.2,25.4-2.7,8.5-5.7,15.4-5.8,15.5l1,.4c.5-1.1,12.1-28,10-41.5-.9-5.7-6-13-15.2-21.7Z"/>
      <path id="Path_1103" class="cls-25" d="M360.2,133.2c-1.6,6.2-6.9,23.4-6.9,23.6l1.1.3c0-.2,5.4-17.4,7-23.6s2.8-23.6,2.8-24.3h-1.1c0,.1-1.2,17.9-2.8,24Z"/>
      <path id="Path_1104" class="cls-25" d="M376.1,119.3c-2.8-4.1-5.3-7.3-6.5-8.9-3-4-3.2-4-3.5-4v1.1c-.2,0-.3,0-.3,0,3.5,4.1,6.7,8.5,9.7,13,5.8,8.5,9.3,15,10,18.3,1.5,8.2-4.2,35.3-4.2,35.5l1.1.2c.2-1.1,5.8-27.6,4.2-36-.8-4.5-6.1-12.9-10.4-19.1Z"/>
      <g id="Group_307" class="cls-14">
        <path id="Path_1105" class="cls-9" d="M334.1,114.6c-21,14.3-23.2,35.4-23.2,35.4.5,6.4,5.7,3.8,9.6-6.5s18.9-11.7,20.9-23.5-7.4-5.4-7.4-5.4Z"/>
      </g>
      <path id="Path_1106" class="cls-39" d="M345.6,110.6c-8.8,4.1-14.9,7.9-18.3,11.3-7.9,8.1-14.3,46.6-14.6,48.2l1.1.2c0-.4,6.6-39.8,14.3-47.6s29.8-16.1,30.1-16.2l-.4-1c0,0-5.7,2.1-12.2,5.2Z"/>
      <path id="Path_1107" class="cls-25" d="M354.2,153.9c-2.2-.6-4.4-.7-6.7-.4-2.7.4-7.2,1.1-13.1,2.3-6.8,1.3-21,9.7-29.4,15,0,1.5.1,3,.3,4.7.2,2,1.9,3.6,4,3.4.6,0,1.2-.2,1.7-.5,9.5-5.9,29.6-17.2,42-16.3,0,0,30.9,17,39.7,32.7,0,0,0-1.7,2.1-4.2-14.3-26.7-32.6-34.5-40.5-36.6Z"/>
      <path id="Path_1108" class="cls-25" d="M358.4,107.7c-13,7.8-20.8,14.1-23.1,18.7-3.9,7.8-8.5,34-8.6,35.1l1.1.2c0-.3,4.8-27.1,8.5-34.8,2.2-4.4,9.8-10.6,22.6-18.3.9-.5,1.1-.7,1.3-.8l-.7-.9c0,0-.6.3-1.1.7Z"/>
      <path id="Path_1109" class="cls-12" d="M381.2,163.8c-10.2.4-11,19.6-12.3,20.1l12.5,12.1c18.7-16.8,10-32.7-.2-32.2Z"/>
      <path id="Path_1110" class="cls-8" d="M381.2,163.1c-8.1.3-10.6,11.4-11.9,17.3-.2,1-.5,2-.8,3-.3.2-.4.7-.2,1,.2.3.5.4.8.2.6-.3.9-1.1,1.5-3.9,1.2-5.5,3.6-15.9,10.6-16.2,4.2,0,8,2.6,9.5,6.6,2.9,7.2-.7,16.3-9.8,24.5-.3.3-.3.7,0,1s.7.3,1,0c0,0,0,0,0,0,9.5-8.5,13.3-18.3,10.2-26-1.9-4.7-6.2-7.6-10.8-7.4Z"/>
      <path id="Path_1111" class="cls-7" d="M378.3,188l3.1-18c-5.2,5.4-3.1,18-3.1,18Z"/>
      <path id="Path_1112" class="cls-24" d="M380.9,169.5c-2.3,2.4-3.5,6.2-3.7,11.5,0,2.4,0,4.7.4,7.1,0,.3.3.6.7.6h.1c.4,0,.6-.4.6-.8,0,0,0,0,0,0,0-.1-1.9-12.3,2.9-17.4.3-.3.3-.7,0-1-.3-.3-.7-.3-1,0,0,0,0,0,0,0h0Z"/>
      <path id="Path_1113" class="cls-7" d="M378.1,184.2s11.6-2,2.5-12.4l-2.5,12.4Z"/>
      <path id="Path_1114" class="cls-24" d="M380.2,171.3c-.3.3-.3.7,0,1,2.7,3.2,3.8,5.8,3.1,7.7-1,2.8-5.2,3.5-5.2,3.6-.4,0-.6.4-.6.8,0,.3.3.6.7.6,0,0,0,0,.1,0,.2,0,5-.9,6.3-4.5.9-2.5-.2-5.6-3.3-9.1-.2-.3-.7-.3-1,0,0,0,0,0,0,0h0Z"/>
      <circle id="Ellipse_4" class="cls-39" cx="366.3" cy="107.1" r="7.8"/>
      <path id="Path_1115" class="cls-10" d="M440.2,348.1c3.8,4.8,28.5,6.8,37-32.1,7.4-33.7-.1-66.7-1.9-73.9,4.3,22.3-35.1,106-35.1,106Z"/>
      <path id="Path_1116" class="cls-10" d="M475.3,242.2c0-.5-.2-.9-.4-1.4,0-.2,0,.3.4,1.4Z"/>
      <path id="Path_1117" class="cls-3" d="M455,216.3c-1.3-.7-2.7-1.3-4.1-1.8-5.3-2.1-10.9-3.2-16.6-3.2-8.9,0-17.8.5-26.6,1.7-16.8,44-24.9,35.5-32.8,33.1-2.9-.9-6.7-5.6-6.7-5.6-27.6,60.8,23.1,131.7,44.4,157.8,4.7,5.8,8.1,9.4,8.8,10.2.1.1.2.2.2.2,3.7.9,7.4,1.3,11.2,1.3,12.7,0,24.3-5.2,34.2-12.5,5.2-3.9,10.1-8.3,14.5-13,.4-.4.8-.8,1.1-1.2,6.8-7.6,12.9-15.8,18.2-24.6,3.4-5.7,5.3-9.5,5.3-9.5-12.4-65.1-26.6-120.4-51.2-132.7Z"/>
      <path id="Path_1118" class="cls-10" d="M371.9,246.1l-3.3-6.4c-2.6,6.5-2.5,41.8-2.5,41.8,3.1,60.2,53.3,114.5,53.3,114.5l6.9-6c-62.4-62.7-54.4-143.9-54.4-143.9Z"/>
      <path id="Path_1119" class="cls-39" d="M408.3,375.5c-8.1-9.4-13.8-21.8-18.9-33.1-22.3-48.6-21.6-86.7-19.1-99.9-2.9-.8-9.7,4.8-9.7,4.8-8.1,110.4,61.1,161.3,61.1,161.3,4.9-4.2,4.7-3,9.9-7.1-8.6-7.4-16.5-18-23.2-25.9Z"/>
      <path id="Path_1120" class="cls-10" d="M372.2,280.4l1,6.3c.8,0,27.2,3,34.6,2.2l-.8-8.7-34.9.3Z"/>
      <path id="Path_1121" class="cls-39" d="M369.1,271.9l.3,10.5c11.8,4.1,42.7,3.1,42.7,3.1l-2.5-11.5c-11.8,2.4-40.5-2-40.5-2Z"/>
      <path id="Path_1122" class="cls-39" d="M473.7,209.2l-3.3-4.5c-4-2.4-5.4-5-13.8-3.8-46.1,13.3-54,38.8-53.7,60.6.4,28.7,22.7,99.1,52.9,128.2l16.6-5.2s-19.4-14.8-28.4-42.9c-9.4-29.4-20.9-102.2-20.9-102.2l13.6-19.2c5.8-3.2,37-11,37-11Z"/>
      <path id="Path_1123" class="cls-39" d="M366.4,243.7l3.9-1.2-1.8-3.4-2,4.6Z"/>
      <path id="Path_1124" class="cls-10" d="M499.4,358.5c-28.9,5.3-78.8,45.9-78.8,45.9,0,0,2.4,10.1,1.9,10.9,12.2-4.4,43-22,50.7-19.8,12.8,3.7,40.6-5,39.6,0-.5,2.5-14.9,42.6-38.6,57.8s-76.9,61.4-71.5,85.3,33.8,121.2,27,140.7l-12.8,12,23.6-7.6s-7.5-112.6-9.8-122.5-16.5-33.3-16.5-33.3c14.1-4.4,89.3-78.9,101.9-109.2s12-65.5-16.8-60.3Z"/>
      <path id="Path_1125" class="cls-39" d="M421.4,408.3c18.1-14.1,40.8-21.5,61.2-25.3,6.8-7.6,12.9-15.8,18.2-24.6-37,6.6-71.8,28.5-88.2,39.7,4.7,5.8,8.1,9.4,8.8,10.2Z"/>
      <path id="Path_1126" class="cls-39" d="M520.2,355c-1.1-4.9-5.9-8.1-10.9-7,0,0,0,0,0,0l-29.6,6.4c-4.9,1.1-8.1,5.9-7,10.9,0,0,0,0,0,0l4.1,19.1c1.1,4.9,5.9,8.1,10.9,7,0,0,0,0,0,0l29.6-6.4c4.9-1.1,8.1-5.9,7-10.9,0,0,0,0,0,0l-4.1-19.1Z"/>
      <path id="Path_1127" class="cls-36" d="M485.2,358.2l21.4-4.6c3.6-.8,7.1,1.5,7.9,5.1l3,13.8c.8,3.6-1.5,7.1-5.1,7.9h0s-21.4,4.6-21.4,4.6c-3.6.8-7.1-1.5-7.9-5.1,0,0,0,0,0,0l-3-13.8c-.8-3.6,1.5-7.1,5.1-7.9,0,0,0,0,0,0Z"/>
      <path id="Path_1128" class="cls-28" d="M311.5,261c-.8-2.5-3.6-3.9-6.1-3.1,0,0,0,0,0,0h0c-2.5.8-3.9,3.6-3.1,6.1,0,0,0,0,0,0l172.7,514.6c.8,2.6,3.5,4,6,3.3s4-3.5,3.3-6c0-.1,0-.2-.1-.3l-172.7-514.6Z"/>
      <path id="Path_1129" class="cls-10" d="M474.9,240.8l-38.6,108.8c27.7,4.6,31.3-2.9,41.5-40.2s-1.8-67.9-2.9-68.6Z"/>
      <path id="Path_1130" class="cls-12" d="M327.3,288.6s-13.8-4.8-19.6-4.3-5.7,4.3-4.5,5.7,10.2,2.7,10.2,2.7l-8.9.4s-4.5.7-3.6,3.8,14.2,5.6,14.2,5.6c0,0-8.5-1.5-11.1-1.3s-2.6,3.2-2.6,3.2c.5,2.8,12.5,6.7,12.5,6.7,0,0-8.9-2.8-10.2-2.8s-1,2.1-1,2.1c.7,2,6.6,6,10.2,8.3,1.8,1.2,3.9,1.9,6,2.1,5.5.5,17.6-.6,20.4-.8,3.8-.3,6.1-.7,6.1-.7,7.4-9.3.7-18.4.7-18.4l-18.9-12.1Z"/>
      <path id="Path_1131" class="cls-17" d="M346.5,300.1l-18.9-12.1s0,0-.1,0c-.6-.2-14-4.8-19.8-4.4-3.8.3-5,2-5.4,3-.5,1.2-.3,2.6.6,3.6.7.8,3.1,1.4,5.4,1.9h-3.8c0,.1,0,.1,0,.1-.1,0-2.7.4-3.7,2-.5.7-.6,1.6-.4,2.5.4,1.4,2.6,2.6,5.3,3.6-.5,0-1.1,0-1.6,0-2.4.2-3.1,2.5-3.2,3.8,0,0,0,0,0,.1.2,1.1,1.8,2.3,3.9,3.4-.4,0-.7-.1-1.1-.1-.4,0-.8.2-1.1.5-.4.6-.6,1.4-.5,2.2,0,0,0,0,0,.1.6,1.6,4.1,4.5,10.4,8.6,1.9,1.2,4,2,6.3,2.1,1,0,2.2.1,3.5.1,6.5,0,15.8-.8,17.1-.9,3.8-.3,6.1-.7,6.2-.7.1,0,.3,0,.4-.2,7.6-9.6.8-19,.8-19.1,0,0,0-.1-.2-.1ZM345.1,318.5c-.7,0-2.8.4-5.9.7-1.5.1-14.6,1.3-20.3.8-2.1-.2-4-.8-5.8-2-5.8-3.7-9.4-6.6-9.9-8,0-.4,0-.9.2-1.2,0,0,.2-.1.3-.1.9,0,6.6,1.7,10,2.7.3,0,.6-.2.6-.5,0-.2,0-.4-.3-.5-4.8-1.6-11.6-4.5-12.1-6.2,0-.4.3-2.5,2.1-2.6,2.5-.2,10.8,1.3,10.9,1.3.3,0,.6-.3.5-.6,0-.2-.1-.4-.3-.5-5-.9-13.2-3.1-13.7-5.2-.2-.5,0-1.1.2-1.6.8-.8,1.8-1.4,2.9-1.6l8.9-.4c.3,0,.5-.4.5-.7,0-.2-.2-.4-.4-.4-3.6-.5-9.1-1.6-9.9-2.5-.5-.7-.7-1.6-.3-2.5.5-1.3,2.1-2.1,4.4-2.3,5.3-.4,18.3,3.9,19.3,4.3l18.7,12c.7,1,5.9,9.1-.6,17.5h0Z"/>
      <path id="Path_1132" class="cls-13" d="M448.6,214.5c-2.1-.4-38.8,9.2-31.4,54.7,0,0,10.6,35.5,8.1,44.4,0,0-62.4-15.8-81.9-16.1,0,0-5.1,2.8-2.8,18.5,2.3,15.7,98.8,37.1,98.8,37.1,0,0,15.2-.7,21.9-18.6s40.1-110.2-12.7-120Z"/>
      <path id="Path_1133" class="cls-3" d="M425.3,313.6c9.6,4.9,15.6,14.7,15.8,25.5,0,0,3.4-15.4-16-37l.2,11.6Z"/>
      <path id="Path_1134" class="cls-3" d="M410.4,310.1s16.6,11.5,18.5,20.7c0,0,.2-7.5-6.7-17.8l-11.7-2.9Z"/>
      <path id="Path_1135" class="cls-28" d="M316.7,249l-27.1,9.5c-2.4.8-3.6,3.4-2.8,5.8,0,0,0,0,0,0h0c.8,2.4,3.4,3.6,5.8,2.8l27.2-9.5c2.3-.9,3.6-3.5,2.7-5.8-.8-2.3-3.4-3.5-5.7-2.7h0Z"/>
      <path id="Path_1136" class="cls-28" d="M345.5,416.2c-1.7-1.8-4.6-2-6.4-.3h0l-21.1,19.5c-1.8,1.7-1.9,4.6-.2,6.4,1.7,1.8,4.5,1.9,6.3.3l21.1-19.5c1.8-1.7,2-4.6.3-6.4Z"/>
      <g id="Group_308" class="cls-40">
        <path id="Path_1137" class="cls-9" d="M548.7,206.8c-10-9.7-19.8-25.6-23.4-31.8-2.4,1.3,96.7,147.8,12.9,224,21,1.6,51.1-25.1,57.6-34.6,7.9-11.7,4.5-35.7-2.7-64.6s-31.8-80.9-44.3-93Z"/>
      </g>
      <path id="Path_1138" class="cls-36" d="M565.7,255.3c-7.7-17.5-16.2-31.9-18.8-33-8.2-3.6-39.1,6.6-44.3,13.2-1.7,2.4-2.7,5.3-2.9,8.2-.8,8.8,2.7,20.8,6.5,31.1,2.5,6.8,5.1,12.8,6.7,16.8,4.7,11.9,8.8,29.2,23.7,31.2,9.8,1.3,22.8.5,30.3-5.9,3.6-3.1,12.7-12.3,12.1-17.9-1.4-12.9-7.1-29.3-13.3-43.6Z"/>
      <circle id="Ellipse_5" class="cls-28" cx="517.6" cy="251.6" r="9.2"/>
      <circle id="Ellipse_6" class="cls-28" cx="540.6" cy="243" r="9.2"/>
      <path id="Path_1139" class="cls-9" d="M566.7,254.9c-.2-.5-.9-.8-1.4-.6-18.4,7.4-45.1,15.4-59.4,19.4-.6.2-.9.8-.8,1.4,0,0,0,0,0,0,1.7,4.5,3.4,8.7,4.8,12.1.7,1.8,1.4,3.4,1.9,4.7.6,1.6,1.2,3.2,1.8,4.9,4.1,11.2,9.2,25.2,22.8,27,2.7.4,5.4.5,8.1.5,2.7,0,5.5-.2,8.2-.6,6.2-1,11.2-3,14.9-6.1h0c2.8-2.5,5.5-5.2,7.8-8.2,3.4-4.4,5-8,4.7-10.7-.7-6.5-3.3-20.9-13.4-43.9ZM566.2,316h0c-7.2,6.1-20,6.9-29.5,5.7-12.3-1.6-16.9-14.3-20.9-25.5-.6-1.8-1.2-3.4-1.9-5-.5-1.4-1.2-2.9-1.9-4.7-1.3-3.1-2.8-6.9-4.3-10.9,14.3-4.1,39.5-11.6,57.4-18.8,7.1,16.5,11.7,31.5,12.8,42.3.5,4.8-7.8,13.7-11.7,17h0Z"/>
      <path id="Path_1140" class="cls-9" d="M521,276.2c-.2-.6-.8-.9-1.4-.8-.6.2-.9.8-.8,1.4,0,0,0,0,0,.1l13.7,38.6c.2.6.9.9,1.4.7.6-.2.9-.8.7-1.4l-13.7-38.6Z"/>
      <path id="Path_1141" class="cls-9" d="M539.3,269.9c-.2-.6-.8-.9-1.4-.7s-.9.8-.7,1.4c0,0,0,0,0,0l13.7,38.6c.2.4.6.7,1.1.7.1,0,.3,0,.4,0,.6-.2.9-.8.7-1.4,0,0,0,0,0,0l-13.7-38.6Z"/>
      <path id="Path_1142" class="cls-9" d="M557.7,263.5c-.2-.6-.8-.9-1.4-.7-.6.2-.9.8-.7,1.4h0l13.7,38.6c.2.4.6.7,1.1.7.1,0,.3,0,.4,0,.6-.2.9-.8.7-1.4,0,0,0,0,0,0l-13.7-38.6Z"/>
      <path id="Path_1143" class="cls-28" d="M558.9,329.8c-8.6,3-20.3,7.2-29.4,3.8-.4-.1-.4.9-.2,2.6,1.1,8.4,8.7,34.3,20.2,36.4,3.5.6,7.9-.4,12.5-1.7,10.5-2.9,18.5-10.6,22.6-20.6.4-.9.7-1.9,1.1-3,2.8-8.6,5.3-23.1.4-29.5-8.8,3.9-18,8.9-27.1,12Z"/>
      <path id="Path_1144" class="cls-25" d="M529.5,333.6c0,.9-.1,1.7-.2,2.6,1.1,8.4,8.7,34.3,20.2,36.4,3.5.6,7.9-.4,12.5-1.7,10.5-2.9,18.5-10.6,22.6-20.6.4-.9.7-1.9,1.1-3-5.7,5.1-13.5,10.7-22.1,13.4-17.8,5.4-34-27.1-34-27.1Z"/>
      <circle id="Ellipse_7" class="cls-26" cx="84.6" cy="362" r="23.5"/>
      <circle id="Ellipse_8" class="cls-34" cx="39.7" cy="244.9" r="9.1"/>
      <circle id="Ellipse_9" class="cls-34" cx="11.9" cy="475.8" r="9.1"/>
      <circle id="Ellipse_10" class="cls-26" cx="679.3" cy="151.6" r="20"/>
      <circle id="Ellipse_11" class="cls-34" cx="775.8" cy="203.8" r="14"/>
      <circle id="Ellipse_12" class="cls-26" cx="796.6" cy="490.2" r="14"/>
      <circle id="Ellipse_13" class="cls-26" cx="236.4" cy="41.3" r="11.7"/>
      <circle id="Ellipse_14" class="cls-34" cx="713.6" cy="53" r="7.5"/>
    </g>
  </g>
</svg>