<?xml version="1.0" encoding="UTF-8"?>
<svg xmlns="http://www.w3.org/2000/svg" version="1.1" viewBox="0 0 560.9 616.9">
  <defs>
    <style>
      .cls-1, .cls-2 {
        fill: #f2b255;
      }

      .cls-3 {
        fill: #f79494;
      }

      .cls-4 {
        fill: #121d3f;
      }

      .cls-5 {
        fill: #dc6565;
      }

      .cls-6 {
        fill: #cc5050;
      }

      .cls-7 {
        fill: #f6af9a;
      }

      .cls-8, .cls-9 {
        fill: #3c71c6;
      }

      .cls-2 {
        opacity: .6;
      }

      .cls-2, .cls-9, .cls-10 {
        isolation: isolate;
      }

      .cls-11 {
        fill: #eaebf4;
      }

      .cls-12 {
        fill: #eb7373;
      }

      .cls-13 {
        fill: #e57e73;
      }

      .cls-14 {
        fill: #f2edeb;
      }

      .cls-15 {
        fill: #f7bead;
      }

      .cls-16 {
        fill: #fff;
      }

      .cls-17 {
        fill: #548ae2;
      }

      .cls-9 {
        opacity: .7;
      }

      .cls-18, .cls-10 {
        fill: #ffc675;
      }

      .cls-19 {
        fill: #b2b2b2;
      }

      .cls-20 {
        fill: #2f4066;
      }

      .cls-21 {
        fill: #283c60;
      }

      .cls-22 {
        fill: #223859;
      }

      .cls-23 {
        fill: #212851;
      }

      .cls-24 {
        fill: #e5d7d1;
      }

      .cls-10 {
        opacity: .6;
      }

      .cls-25 {
        fill: #3b4a75;
      }

      .cls-26 {
        fill: #d35f5f;
      }

      .cls-27 {
        fill: #ccc2ca;
      }

      .cls-28 {
        fill: #c95959;
      }

      .cls-29 {
        fill: #c6c6c6;
      }

      .cls-30 {
        fill: #d8efe1;
      }

      .cls-31 {
        fill: #e56c6c;
      }
    </style>
  </defs>
  <!-- Generator: Adobe Illustrator 28.6.0, SVG Export Plug-In . SVG Version: 1.2.0 Build 709)  -->
  <g>
    <g id="Layer_1">
      <path id="Path_9447" class="cls-30" d="M500.8,610.4c-40,7.2-123,10.7-145-1.6-23.6-13.2-46.4-17.1-55.1-17.5-28.9,1-65.2-2.7-82.1-6.1-30.7-6.1-32.4-1-40.9,9s-79.8,10.8-108.2,0-7.5-27.6-7.5-27.6c0,0-13.8-9.3-17-12-2.9-2.4-17.2,4.9-38.7-15.1s15.9-26.2,65.8-32.3,415.4-30.3,415.4-30.3c0,0,56.9,59.9-10,71.5-33,5.7-52.6,12.9-67.7,19.6,55.8,5.4,113.4-12.3,141.2,7.6,28.7,20.5-10.2,27.7-50.2,34.8Z"/>
      <g id="Group_4890">
        <path id="Path_9448" class="cls-29" d="M213.3,328.2c-9.9-2.7-20.3-3.3-30.5-1.5-21.1,3.6-54.3,10.7-69.6,21.7-20.6,15-22.1,46.4-32.9,68.4s-23.8,68.1-47.7,85.7c-23.8,17.6-14.3,30.4-10,39.2s162,18.9,207.2,26.8,136.6,8.2,169.4-7.6,53.9-18.8,77.8-27.6,26-63.7,10.8-103.3-49.9-79.1-84.5-85.7c-31.5-6-143.8-3.4-190-16Z"/>
        <g id="Group_4889">
          <path id="Path_9449" class="cls-19" d="M235.4,458.5c1.5-18.4,6.1-30,26.1-33s69.2-16.9,83.8-25.4,40.7-20,56.1-23.8c10.8-2.7,20.9-15.3,25.9-22.5-7.4-4.6-15.5-7.8-23.9-9.5-31.7-6-145-3.4-190.8-16.3-9.2-2.6-18.8-3.1-28.2-1.6-20.9,3.5-55.5,10.7-71.1,22-1.3.9-2.5,1.9-3.6,3-10,19.9-8.5,41.4-7.2,65.7,1.5,28.4,2.3,53.8,5.4,69.9,3.1,16.1-8.5,40-23.1,43.8s-28.4,7.7-45.3,9.2c-7.2.7-15.2-4.2-21.2-7.8,1.2,3.2,2.7,6.4,4.4,9.4,4.3,8.8,162,18.9,207.2,26.8,30.5,5.3,82,7.2,122.3,3-21.6-10.9-53.2-6.2-72.3-10.6-20-4.6-59.9-6.9-73-14.6s-7.7-16.1,4.6-30.7,22.3-38.4,23.8-56.9Z"/>
          <path id="Path_9450" class="cls-19" d="M326.1,466.2s-6.1,15.4,12.3,30,40,4.6,57.6,16.1,23.1,8.5,46.9,9.2,26.9-13.1,27.7-18.4-36.9-5.4-51.5-17.7-13.1-12.3-25.4-30.7-47.6-10.8-59.9-11.5-2.3,17.7-7.7,23.1Z"/>
          <path id="Path_9451" class="cls-19" d="M487.9,429.9c-7.8-20-19.4-38.4-34-54.2,1.2,5.6,2.9,15.9,1.3,24.4-2.3,12.3-13.1,33-.8,41.5s34.6,16.1,38.4,20.7c.9,1,2.1,1.7,3.5,2-1.4-11.8-4.3-23.3-8.4-34.4Z"/>
          <path id="Path_9452" class="cls-19" d="M262.3,480.8s-7.7,13.1-11.5,23.1-5.4,20-10,24.6,19.2,12.3,30.7,13.1,9.2-7.7,16.9-16.9-7.7-16.1-9.2-27.7-5.4-36.9-16.9-16.1Z"/>
        </g>
      </g>
      <g id="Group_4964">
        <g id="Group_4915">
          <g id="Group_4900">
            <path id="Path_9453" class="cls-4" d="M313.8,365.6c-6.9,43.3-43.5,37.4-76.3,31.5-28.4-5.1-58.2-15.2-65.5-17.8,1.8,32.7-3,131.3-4.8,130.8-2-.5-42.2,3.4-42.2,3.4,0,0-2.1-13.9-6.7-40.6s-7.1-84.8-5.8-119.6c.5-13.1,3.8-21.9,7.7-27.8,4.6-6.8,11.9-11.4,20.1-12.4,13-1.6,26.1-2,39.2-1.2,14.6.8,84,10.5,84,10.5,62,7.9,52.2,30.2,50.5,43.3Z"/>
            <g id="Group_4899">
              <path id="Path_9454" class="cls-26" d="M167.8,529.8c-.6,4.9-.8,9.8-.6,14.7.1,1.1,0,2.3,0,3.4-.9,6-5.9,5.6-5.9,5.6,0,0-14.2,2.1-26.5,3.4s-47.2,6-53.4,4.1c-3.6-1.1-7.8-2.9-8.4-7-.4-3,.5-7.4,5.4-13.4,11.5-14.2,28.8-5.7,41.8-13.8.5-.3,5.2-8.7,2.8-20.3-1.2-5.9-.6-7.2,1.7-6.5,2.5.7,6.8,3.7,13,5.7,3.4,1.1,9,.4,14.6-1.1,6.4-1.8,12.9-4.6,16-7.1,3.8-3,.9,24.3-.3,32.3Z"/>
              <g id="Group_4898">
                <path id="Path_9455" class="cls-6" d="M152.2,504.6c-3.1,1.2-12.7,4.5-17.7,3.4-6-1.3-9.9-8-9.9-8,2.5.7,6.8,3.7,13,5.7,3.4,1.1,9,.4,14.6-1.1Z"/>
                <g id="Group_4893">
                  <g id="Group_4892">
                    <path id="Path_9456" class="cls-11" d="M122,537.7c-.3,0-.5-.2-.5-.5h0c0-3.5-1.7-6.8-4.7-8.7-.3-.1-.4-.5-.2-.7.1-.3.5-.4.7-.2h0c3.3,2.1,5.3,5.7,5.2,9.6,0,.3-.2.5-.5.5Z"/>
                  </g>
                </g>
                <g id="Group_4895">
                  <g id="Group_4894">
                    <path id="Path_9457" class="cls-11" d="M115.6,539.5c-.3,0-.5-.2-.5-.5h0c0-3.5-1.7-6.8-4.7-8.7-.3-.1-.4-.5-.2-.7.1-.3.5-.4.7-.2,0,0,0,0,0,0,3.3,2.1,5.3,5.7,5.2,9.6,0,.3-.2.5-.5.5Z"/>
                  </g>
                </g>
                <g id="Group_4897">
                  <g id="Group_4896">
                    <path id="Path_9458" class="cls-11" d="M108.3,539.8c-.3,0-.5-.2-.5-.5h0c0-3.5-1.7-6.8-4.7-8.7-.3-.1-.4-.5-.2-.7.1-.3.5-.4.7-.2,3.3,2.1,5.3,5.7,5.2,9.6,0,.3-.2.5-.5.5Z"/>
                  </g>
                </g>
                <path id="Path_9459" class="cls-23" d="M167.1,547.9c.2,2.4.8,10.4-.2,12.7-1.1,2.8-21.8,4.2-22.9,4.4s.9-3.9-5.8-3.7-3.3,3.7-6.1,4.8-40.5,4.9-49.4,2.7-10.5-13.4-9.9-14.8c.6,4.1,4.8,5.9,8.4,7,6.2,1.9,41.1-2.9,53.4-4.1s26.5-3.4,26.5-3.4c0,0,5,.4,5.9-5.6Z"/>
              </g>
            </g>
          </g>
          <g id="Group_4914">
            <path id="Path_9460" class="cls-23" d="M359.6,370.9c-12,17.7-46.4,34.8-75.6,43s-42.3,10.7-50.3,12.3c-.3.7-13.3,36.1-23.9,55.6s-43.7,62.1-43.7,62.1l-29.6-17.2s40-129.9,47.9-146c7.8-15.9,31.4-24.9,31.9-25.1,0,0,0,0,0,0,19.4-9.6,50.8-23.8,65.3-31.3,20.2-10.5,67.4-23.1,83,1.5,0,0,6.9,27.4-5.1,45.1Z"/>
            <g id="Group_4913">
              <path id="Path_9461" class="cls-31" d="M167.1,575.4c0,1.1-.1,2.3-.4,3.4-1.4,5.9-6.4,5-6.4,5,0,0-14.4.8-26.7.9s-47.6,1.6-53.6-.9c-3.5-1.4-7.5-3.6-7.7-7.7-.2-3,1.2-7.3,6.7-12.9,12.8-13.1,27.9-4.3,41.6-11.2s11.1-8.9,14.1-17.9c1.1-3,1.9-6.2,2.4-9.4,0-.5.5-.8,1-.7,0,0,0,0,0,0h0c.2,0,.4.1.5.3,1.6,1.8,3.5,3.3,5.6,4.5,5.9,3.5,16.2-.4,16.2-.4,1.9-.6,3.9-.8,5.9-.7.3,0,.7,0,1,.1,0,0,0,0,0,0,0,0,0,0,0,0,3.3.6,5.8,3.3,6.1,6.7-2.7,3.9-4.3,8.5-4.5,13.2-.6,10.5-1.7,17.9-1.8,27.5Z"/>
              <g id="Group_4912">
                <g id="Group_4904">
                  <g id="Group_4901">
                    <path id="Path_9462" class="cls-26" d="M140.4,582.9c0,0-.1,0-.2,0-.3,0-.4-.4-.4-.7.9-2.7,2.5-5.1,4.7-6.8.2-.2.6-.1.8.1.2.2.1.6-.1.7-2,1.7-3.5,3.8-4.3,6.3,0,.2-.3.4-.5.4Z"/>
                  </g>
                  <g id="Group_4902">
                    <path id="Path_9463" class="cls-26" d="M147.2,574.1c-.3,0-.5-.2-.5-.5,0-.2,0-.3.2-.4,0,0,.2-.3.3-.4.9-1.2,3-4,5.3-4.8.3-.1.6,0,.7.3s0,.6-.3.7c0,0,0,0,0,0-2,.7-4,3.4-4.8,4.5-.5.6-.5.7-.8.7,0,0,0,0,0,0Z"/>
                  </g>
                  <g id="Group_4903">
                    <path id="Path_9464" class="cls-26" d="M155.6,567c-.3,0-.5-.2-.5-.5,0-.2,0-.3.2-.4.2-.1,4-3.5,6.7-3.1.3,0,.5.3.5.6,0,.3-.3.5-.6.5,0,0,0,0,0,0-1.9-.2-4.9,2-5.9,2.9,0,0-.2.1-.4.1Z"/>
                  </g>
                </g>
                <g id="Group_4911">
                  <g id="Group_4906">
                    <g id="Group_4905">
                      <path id="Path_9465" class="cls-11" d="M130.3,558.4c-.3,0-.5-.2-.5-.4-.6-3.5-3-6.4-6.3-7.6-.3,0-.4-.4-.3-.7,0-.3.4-.4.7-.3h0c3.6,1.4,6.3,4.6,7,8.5,0,.3-.1.6-.4.6,0,0,0,0-.1,0Z"/>
                    </g>
                  </g>
                  <g id="Group_4908">
                    <g id="Group_4907">
                      <path id="Path_9466" class="cls-11" d="M124.4,561.4c-.3,0-.5-.2-.5-.4-.6-3.5-3-6.4-6.3-7.6-.3-.1-.4-.4-.3-.7,0-.3.4-.4.7-.3,3.6,1.4,6.3,4.6,7,8.5,0,.3-.1.6-.4.6,0,0,0,0,0,0,0,0,0,0-.1,0Z"/>
                    </g>
                  </g>
                  <g id="Group_4910">
                    <g id="Group_4909">
                      <path id="Path_9467" class="cls-11" d="M116,563.3c-.3,0-.5-.2-.5-.4-.6-3.5-3-6.4-6.3-7.6-.3-.1-.4-.4-.3-.7,0-.3.4-.4.7-.3,3.6,1.4,6.3,4.6,7,8.5,0,.3-.1.6-.4.6,0,0,0,0-.1,0h0Z"/>
                    </g>
                  </g>
                </g>
                <path id="Path_9468" class="cls-23" d="M166.7,578.8c0,2.4-.2,10.4-1.4,12.6-1.4,2.6-22.1,2.2-23.2,2.2s1.2-3.8-5.4-4.2-3.6,3.3-6.5,4.2-40.8,1.1-49.4-2-9.2-14.3-8.5-15.6c.2,4.1,4.3,6.3,7.7,7.7,6,2.5,41.2,1,53.6.9s26.7-.9,26.7-.9c0,0,5,.9,6.4-5Z"/>
                <path id="Path_9469" class="cls-26" d="M166.2,527.8h.8c-3.3-.1-11.4,5.1-19.2,4.8-7.9-.3-9.8-8.5-9.8-8.5,0,0,0,0,0,0,.2,0,.4.1.5.3,1.6,1.8,3.5,3.3,5.6,4.5,5.9,3.5,16.2-.4,16.2-.4,1.9-.6,3.9-.8,5.9-.7Z"/>
              </g>
            </g>
          </g>
        </g>
        <g id="Group_4963">
          <g id="Group_4942">
            <g id="Group_4920">
              <g id="Group_4917">
                <path id="Path_9470" class="cls-7" d="M218.6,262.4c-5.5,13.9-12.6,27.1-21.2,39.4-13.5,18.8-34.5,45.1-42.7,44.3s-4.2-14.8-1.4-25.9,13.7-41.6,20-53.3c8.6-16,10.7-28.4,22.3-28.7s24.3,5,22.9,24.2Z"/>
                <g id="Group_4916">
                  <path id="Path_9471" class="cls-7" d="M153.3,320.6s-6.1,20.4-7.8,23.9-5.2,13.6-5.5,17.4,1.9,20.5,5.6,30.6c.6,2.3,2.8,3.1,3.7,2,0,0,3.1,3.5,5.1-.3,0,0,3.7,2.8,5-1,0,0,4.4,1.9,4.6-1.3s-2.6-23.2-2.8-26.4.4-6,1.4-6c1.9,0,2.3,7.4,2.4,12.2s4,3.1,4.6-1.7c.8-6.8.4-13.6-1.4-20.2-1.4-5.3-.3-10.9,2.9-15.4,1.7-1.9-9.2-31.1-17.9-13.9Z"/>
                  <path id="Path_9472" class="cls-13" d="M149.3,394.5c-.4-1.4-.9-2.8-1.3-4.2s-.8-2.8-1.2-4.3-.8-2.8-1.1-4.3c-.3-1.4-.5-2.9-.6-4.4,0,0,0,0,0,0,0,0,0,0,0,0,.5,1.4.9,2.8,1.3,4.2s.6,2.9,1,4.3.6,2.9,1,4.3l1,4.3s0,0,0,0c0,0,0,0,0,0h0Z"/>
                  <path id="Path_9473" class="cls-13" d="M154.5,394.3c-.4-1.5-.8-3-1.2-4.5s-.8-3-1.2-4.5-.8-3-1.1-4.5c-.1-.8-.2-1.5-.3-2.3s-.2-1.5-.2-2.3c0,0,0,0,0,0h0s0,0,0,0c.5,1.5.8,3,1.2,4.5s.6,3,.9,4.5.6,3,.9,4.5l.9,4.5s0,0,0,0h0s0,0,0,0Z"/>
                  <path id="Path_9474" class="cls-13" d="M159.5,393.2c-.5-1.4-.9-2.9-1.3-4.4-.4-1.5-.8-2.9-1.1-4.4-.4-1.5-.7-3-.9-4.5,0-.8-.2-1.5-.2-2.3,0-.8,0-1.5,0-2.3,0,0,0,0,0,0h0s0,0,0,0c.3,1.5.7,3,1,4.4.2.7.3,1.5.4,2.2s.2,1.5.4,2.2c.3,1.5.6,3,.9,4.4s.6,3,1,4.4c0,0,0,0,0,0,0,0,0,0,0,0,0,0,0,0,0,0Z"/>
                </g>
                <path id="Path_9475" class="cls-18" d="M171.6,365.4c-.2,4.4-.8,8.2-2.4,9.4-.3.3-.7.5-1.1.7-3.1,1.4-4.8-1.7-5.1-3.9-.3-2.3.2,2.9,1.6,10,0,.5.2,1,.3,1.4,1.7,7.8-.3,16.3-14.4,13.7s-10.8-33.6-10.5-40.6c.2-3.4,2-8.6,3.7-13,1.8-4.4,3.5-7.9,3.5-7.9,0,0,20-.7,23.2,7-1.5,2-1.8,4.6-.6,6.9,1.1,2.5,2,10,1.7,16.4Z"/>
                <path id="Path_9476" class="cls-2" d="M171.6,365.4c-.9-8.9-5.8-16.9-13.2-21.9-5-3.2-14.6-.4-14.6-.4,1.8-4.4,3.5-7.9,3.5-7.9,0,0,20-.7,23.2,7-1.5,2-1.8,4.6-.6,6.9,1.1,2.5,2,10,1.7,16.3Z"/>
              </g>
              <g id="Group_4919">
                <path id="Path_9477" class="cls-7" d="M219.6,133.6s-10,9.6-16.8,35.5-20,79.1-19.7,89.5,15.6,22.6,28.9,11.3,20.9-41.2,28.3-59.2c9.7-23.9,12.4-56.4,5.2-67.9s-23.1-11.5-25.8-9.2Z"/>
                <g id="Group_4918">
                  <path id="Path_9478" class="cls-17" d="M252.2,173.1c-3.5,28.1-23.1,74.5-23.5,75.4-2.5,5.8-8.2,16.4-14,27.2-2.8,5.2-5.6,10.4-8.1,15.1-7.9,14.7-34.6,53-36.1,51.4s-24-7.2-24-7.2c0,0,.8-3.7,7.4-25s26.1-61.9,28-67.5,8.9-46.2,16.5-71.6c8.6-28.8,21.1-39.5,21.1-39.5,18.5-5.6,32.1,6.8,33.2,32.2,0,3.1,0,6.3-.5,9.4Z"/>
                  <path id="Path_9479" class="cls-8" d="M252.2,173.1c-3.5,28.1-23.1,74.5-23.5,75.4-2.5,5.8-8.2,16.4-14,27.2-1.5-20.1-5.2-75.1-6.6-88.8-1.9-19.1,2.7-37.5,2.7-37.5,0,0,26.3,3.6,41.3,23.7Z"/>
                </g>
              </g>
            </g>
            <g id="Group_4923">
              <path id="Path_9480" class="cls-15" d="M270.8,114.6s34.9-7.9,59.1,5.4,17.1,57.2,11.8,82.8-3.6,47.6-4,70-5.4,44.4-45.9,49.4-50.4-20.3-54.5-35.1-10.8-60.7-17.3-83.4-15.4-64.3,6.8-76,31.9-10.6,44-13Z"/>
              <g id="Group_4922">
                <path id="Path_9481" class="cls-17" d="M364.7,327.3c-95.6,27.6-133.1-5.8-138.9-10.2-.4-.3,5.3-12.5,5.5-17,1.1-22.7-2.8-37.3-4.1-44.1-3.1-16.4-9.7-51.8-13.5-64.2s-6.8-41.5-.6-52.7,19-17,24-19.4c3.9-1.6,8-2.7,12.1-3.4.5-2.4.9-4.2.9-4.2,0,0,.8,2.8,9.1,2.9,3.2-.3,6.5-.7,9.8-1.1,9.9-3.2,14-12.7,14-12.7,1.2,2.7,7.3,5.3,12.2,7,3.4,1.2,6.2,1.9,6.2,1.9.6,0,1.2,0,1.7,0,2.3,0,4.7.2,7,.6,21.3,3.3,30,13.9,30,13.9,16.5,21.4,7.4,63.7,5.3,78.2-1.7,11.4-2.5,23.7-1.7,34.3.2,2.8.6,5.5,1.1,8.2,1.6,8,4.9,24.1,7.7,35.7.9,4.2,2.1,8.4,3.5,12.6,2.5,6.2,9.3,28.5,10.1,31.4.3,1-.3,2-1.3,2.3Z"/>
                <path id="Path_9482" class="cls-8" d="M298.2,147.4c-7.6,11.4-8.9,13.9-6.8,29.6,1.4,10.4,6.8,30.8,6.8,30.8,0,0-8.8,5.4-18.5,5.4,0,.2-2.8,11.5-23.1,13.8-20.6,2.3-16.8-8.1-16.8-8.1l32.9-7.5c-6.8-11.8,20.1-99,20.1-99,.6-1.4,1.3-2.8,2.3-4,3.4,1.2,6.2,1.9,6.2,1.9.6,0,1.2,0,1.7,0,.2,2.3.4,6.9-2,9.1-3.2,3,4.8,16.7-2.8,28Z"/>
                <g id="Group_4921">
                  <path id="Path_9483" class="cls-8" d="M352.4,281.2c-.4,0-41,8-46.7,10.7-5.8,2.7-7.3-.8-11.2,1.1s-20.9,10-21.9,14.2-12.9-6.6-12.9-6.6l10.7-27.6,5.6-2.7-4-1.1s-.7-8.3.5-8.8,16.7,2.3,22.6-1,24.6-12.7,32.6-19.6c7.8-6.7,1.7-18.4,1.4-18.8,0,0-.1-.2-.2-.3v-.2c-7.3-12.3-14.8-25.9-19.2-36-10.2-23.7-8.1-38.5-8.1-38.5,0,0,25.2,2,47.6,7.1,1.7,19.5-2.6,40.7-4,50.1-1.7,11.5-2.5,23.9-1.6,34.5,0,.4,0,.9.1,1.3,0,.5.1,1.1.2,1.6,0,.2,0,.4,0,.6,0,.2,0,.4,0,.5,0,.3,0,.7.1,1,0,.3,0,.6.1.9,0,.2,0,.4.1.7v.3c.1.4.2.7.3,1.1,1.6,8,4.9,24,7.7,35.7Z"/>
                  <path id="Path_9484" class="cls-8" d="M344.9,246.8c-.4-.6-.7-1.2-1.2-1.9l.7-.6c0,.4.1.7.2,1.1,0,.5.2.9.3,1.3Z"/>
                </g>
              </g>
            </g>
            <g id="Group_4941">
              <g id="Group_4937">
                <path id="Path_9485" class="cls-7" d="M392.8,254s-15.5,7.7-44.8,17.5-38.1,11.1-52.6,14.7c-11.4,2.8-14.5-9.5-.9-17.6s25-16.5,43.8-26.3,34.9-20.4,44-19.9c12.8.8,21.3,23.7,10.5,31.6Z"/>
                <g id="Group_4936">
                  <path id="Path_9486" class="cls-7" d="M279.9,265.7c-1.1,10.4-4.7,11.6-4.7,11.6,1.3-.8,1.7-2.6.8-3.9-.3-.4-.7-.8-1.2-1-.5-.2-.9-.4-1.4-.5-.7,0-1.3.1-2,.3-2.9.3-8,2.5-10.7,1.5-.9-.3-1.3-1.3-1-2.2,0-.1.1-.3.2-.4,1.1-1.3,2.5-2.2,4.1-2.8,5.2-2.1,9-3.1,12.1-3.2,1.3,0,2.5.3,3.7.6Z"/>
                  <g id="cap">
                    <g id="Group_4935">
                      <g id="Group_4924">
                        <path id="Path_9487" class="cls-25" d="M281.6,251.2c-.7,0-1.4-.3-2.1-.5l-.3-1.3c.7.3,3.8,1.1,6.2,0,1.3-.6,3.8-2.5,3.6-5.1-.3-2-1.8-3.6-3.8-4.1-2.7-.7-6.7,1.6-8.5,6.5l-1.2-.5c1.9-5,6.3-8.2,10-7.3,2.5.6,4.4,2.7,4.8,5.2.3,3.3-2.6,5.6-4.3,6.4-1.3.6-2.8.8-4.3.6Z"/>
                      </g>
                      <g id="Group_4925">
                        <path id="Path_9488" class="cls-12" d="M278.4,307.2s1.9-50.1,1.9-50.1l-33.4.5.9,13.5,2.5,36.6s0,0,0,0c0,1.5,6.3,2.7,14.1,2.5,1.8,0,3.5-.1,5.1-.3.4,0,.7,0,1.1,0,1.3-.1,2.7-.3,4-.6.4,0,.7-.2,1.1-.3,1.8-.5,2.8-1.1,2.8-1.7,0,0,0,0,0,0Z"/>
                        <path id="Path_9489" class="cls-25" d="M277.2,258.5v.7s-1.5,46.2-1.5,46.2v.3s0,1.6,0,1.6v1.7c-.4,0-.7.2-1.1.3-1.3.3-2.6.5-4,.6v-2.5c0,0-.1-2.5-.1-2.5h0c0,0-1.4-44.5-1.4-44.5v-.7s8.2-1.1,8.2-1.1Z"/>
                        <path id="Path_9490" class="cls-24" d="M276.2,258.5v.7s-1.5,46.2-1.5,46.2v1.9c0,0-.1,1.9-.1,1.9-1.7.3-3.3.6-5,.7v-2.6c0,0-.2-2.6-.2-2.6l-1.4-44.4v-.7s8.2-1.1,8.2-1.1Z"/>
                        <path id="Path_9491" class="cls-19" d="M280.6,252.3c0-.1,0-.2.1-.4,0-.4-.5-.9-1.3-1.2.2-.2.3-.4.3-.6l.9-3.4-34.4.5,1,3.3c0,.2.1.5.3.6-.8.4-1.3.8-1.3,1.3,0,.1,0,.3.1.4l.9,3c0,.3.2.5.4.7-.6.3-.9.7-.9,1,0,1.8,7.5,3.2,16.7,3s16.7-1.7,16.6-3.5c0-.4-.3-.7-.9-1,.2-.2.4-.4.4-.7l.8-3Z"/>
                      </g>
                      <path id="Path_9492" class="cls-25" d="M280.6,246.7c0,.4-.4.8-1.1,1.2-2.4,1.3-8.7,2.3-16,2.4s-13.6-.7-16.1-1.9c-.7-.4-1.1-.8-1.1-1.2,0-1.9,7.6-3.5,17.1-3.6s17.2,1.3,17.2,3.1Z"/>
                      <path id="Path_9493" class="cls-16" d="M279,295.6c0,.8-7,3.3-14.8,3.4-1.7,0-3.5,0-5.2-.3-5.5-.6-9.7-2.2-9.7-2.8l-2.1-24.2c0-.2.2-.5.4-.5,0,0,.2,0,.2,0,1.6.6,3.2,1.1,4.9,1.3,1.4.2,3,.5,4.7.6,2.2.2,4.3.3,6.5.2,9.1-.1,16.4-2.3,16.6-3.2l-1.5,25.2s0,0,0,0Z"/>
                      <path id="Path_9494" class="cls-23" d="M278.5,246.9c.2,0,.3.2.2.4,0,.1-.1.2-.2.2-4.9.9-10,1.4-15,1.4-2.5,0-4.8,0-7,0-1.7,0-3.3-.2-4.6-.3-.5,0-1-.1-1.5-.2-.7,0-1.2-.1-1.5-.2-.1,0-.2-.1-.2-.3,0,0,0-.2.2-.2,4.7-1.4,9.6-2.1,14.6-2.2,5.1-.1,10.1.4,15.1,1.4Z"/>
                      <path id="Path_9495" class="cls-14" d="M259,298.7c-5.5-.6-9.7-2.2-9.7-2.8l-2.1-24.3c0-.3.4-.5.7-.3,1.6.6,3.2,1.1,4.8,1.3,1.4.2,3,.5,4.7.6.6,8.5,1.1,17,1.7,25.5Z"/>
                      <g id="Group_4933">
                        <g id="Group_4926">
                          <path id="Path_9496" class="cls-27" d="M250.9,296.2c-.3,0-.6-.3-.6-.6l-1.3-22.3c0-.4.3-.7.6-.7.4,0,.7.3.7.6l1.3,22.3c0,.4-.3.7-.6.7,0,0,0,0-.1,0h0Z"/>
                        </g>
                        <g id="Group_4927">
                          <path id="Path_9497" class="cls-27" d="M254.2,297.1c-.3,0-.6-.3-.6-.6l-.7-22.2c0-.4.3-.7.7-.7.4,0,.6.3.7.6l.7,22.2c0,.4-.3.7-.6.7,0,0,0,0-.1,0Z"/>
                        </g>
                        <g id="Group_4928">
                          <path id="Path_9498" class="cls-27" d="M257.9,297.6c-.3,0-.6-.3-.6-.6l-.3-21.8c0-.4.3-.7.7-.7.4,0,.7.3.7.7l.3,21.8c0,.4-.3.7-.6.7h0s0,0,0,0Z"/>
                        </g>
                        <g id="Group_4929">
                          <path id="Path_9499" class="cls-27" d="M262.4,297.8c-.3,0-.6-.3-.6-.6l-.3-21.5c0-.4.3-.7.7-.7.4,0,.7.3.7.7l.3,21.5c0,.4-.3.7-.6.7h0s0,0,0,0Z"/>
                        </g>
                        <g id="Group_4930">
                          <path id="Path_9500" class="cls-27" d="M267.5,297.8c-.3,0-.6-.3-.6-.6l-.3-21.5c0-.4.3-.7.7-.7.4,0,.7.3.7.7h0l.3,21.5c0,.4-.3.7-.6.7h0s0,0,0,0Z"/>
                        </g>
                        <g id="Group_4931">
                          <path id="Path_9501" class="cls-27" d="M272.4,297.1c-.3,0-.6-.3-.6-.6l-.3-21.5c0-.4.3-.7.7-.7.4,0,.7.3.7.7h0l.3,21.5c0,.4-.3.7-.6.7,0,0,0,0,0,0Z"/>
                        </g>
                        <g id="Group_4932">
                          <path id="Path_9502" class="cls-27" d="M276.7,295.8c-.3,0-.6-.3-.6-.7l.4-21.5c0-.4.3-.6.7-.6.3,0,.6.3.6.6l-.4,21.5c0,.4-.3.7-.7.6,0,0,0,0,0,0Z"/>
                        </g>
                      </g>
                      <g id="Group_4934">
                        <path id="Path_9503" class="cls-27" d="M260.3,254.9c-.4,0-.6-.4-.6-.8,0-.3.4-.6.7-.6,11.1,1,18-1.3,18.1-1.3.3-.1.7,0,.8.4.1.3,0,.7-.4.8-.3,0-7.3,2.4-18.6,1.4h0Z"/>
                      </g>
                    </g>
                  </g>
                  <path id="Path_9504" class="cls-7" d="M311.1,274.6s-1.5,7.8-12,11-15.4,9.4-22.4,13.4c-5.9,3.2-12.7,4.2-19.2,2.8-4.7-1.3-15-6.6-10.6-9.9,0,0-3.4-4.4.3-5.6,0,0-1.3-4,2-5,1-.2,2.1,0,3.1.3,3.8.9,7.7,1.2,11.5.8,2.8-.3,7.3-2.5,11.3-5.1,0,0,3.7-1.2,4.7-11.6,4.1.8,10.6,2.2,17,2.1,7.5,0,14.2-.9,14.2,6.7Z"/>
                  <path id="Path_9505" class="cls-13" d="M247.3,286.2c1.8.4,3.5.7,5.3,1s3.6.6,5.3.9c1.8.3,3.6.4,5.4.5,1.8,0,3.6,0,5.4-.1h0c-.8.4-1.7.7-2.7.8-.9.1-1.8.2-2.8.1-1.8-.1-3.6-.4-5.4-.7-1.8-.3-3.6-.7-5.3-1.1-1.8-.4-3.5-.8-5.3-1.3h0Z"/>
                  <path id="Path_9506" class="cls-13" d="M247,291.8c1.7.7,3.4,1.4,5.1,1.9,1.7.6,3.5,1.1,5.2,1.6.9.2,1.8.4,2.7.5.4,0,.9,0,1.4.1s.9,0,1.4.1c1.8.2,3.6.2,5.4,0h0c-.9.3-1.8.5-2.7.6-.9,0-1.8.1-2.8,0-.9,0-1.8-.1-2.8-.3-.9-.2-1.8-.4-2.7-.6-1.8-.5-3.5-1.1-5.2-1.8-1.7-.7-3.4-1.4-5-2.2h0Z"/>
                </g>
                <path id="Path_9507" class="cls-18" d="M303.4,286s-6.4.6-13.2,6.1-19,14.1-34.2,10.2-15.7-20.6-7.3-22.5,21.3,1.6,26.7-4.4c3.5-3.9,4.2-6.7,4.4-8.2.1-.9.2-1.4.2-1.4l19.7,1.7,3.7,18.6Z"/>
              </g>
              <g id="Group_4940">
                <path id="Path_9508" class="cls-7" d="M337.4,123.2s12.9,12.3,34.2,54.1,35.6,65.9,21.4,76.5-40-23.9-53-39.9-39.1-57.7-37.1-76.3,17.8-27.4,34.5-14.3Z"/>
                <g id="Group_4939">
                  <g id="Group_4938">
                    <path id="Path_9509" class="cls-17" d="M395.5,254.5c-17.1,16.3-51.6,21.5-65.4,25.2s-27.4,8.1-27.4,8.1c0,0-5-20.9-8.8-22.6,0,0,48.1-27.8,51.8-29.8s-.9-6.8-.9-6.8c0,0-26.5-40.4-36.3-60.2s-13.2-51.7,12.6-53.8c5.7.2,13.2,4,21.9,10.8,18.9,22.2,34.7,47,46.9,73.5h0c.5.9,22.6,39.4,5.6,55.6Z"/>
                  </g>
                  <path id="Path_9510" class="cls-9" d="M327.3,176.2s18.5-13.6,30.6-16.5l3.9,6.7s-26.9,15.9-28.8,16.3c-.7.1-5.7-6.5-5.7-6.5Z"/>
                </g>
              </g>
            </g>
          </g>
          <g id="Group_4962">
            <g id="Group_4943">
              <path id="Path_9511" class="cls-7" d="M275.9,81.3c2,1.9,3.3,4.5,3.8,7.2.8,4.6,3,15,7.2,21.5,5.6,8.5-7,22.7-17.7,23.2-11.6.6-15.8-3.2-17.8-13.3s-2.3-12-3.4-20.2c-1.8-12.9,6.4-19.9,13.8-21.4,6.6-1.3,11,.1,14,2.9Z"/>
              <path id="Path_9512" class="cls-13" d="M261.9,78.4c6.6-1.3,11,.1,14,2.9,2,1.9,3.3,4.5,3.8,7.2.2.9.4,2.1.7,3.4-7,13.3-18.1,23.1-29,27.4-1.9-9.6-2.2-11.6-3.3-19.6-1.8-12.9,6.4-19.9,13.8-21.4Z"/>
            </g>
            <g id="Group_4944">
              <path id="Path_9513" class="cls-18" d="M276.7,207.2c0,2.3-.7,4.6-1.9,6.6-8.9,14.6-40.6,11.9-34.4,4,4.2-5.3,10.8-29.9-3.2-48.6-10-13.5-4-33.7.1-44.1,1.6-4.1,3-6.6,3-6.6l11.2,2.6,16.4,3.8s1.8,12.1,3.8,27.4c2.4,19.1,5.1,43.2,4.9,54.9Z"/>
              <path id="Path_9514" class="cls-1" d="M277.1,203.4c0,2.5-.4,7.2-1.6,9.1-2.1-2.2-7.8-5.7-14-14.7-8.7-12.6-11.2-25.6-9.3-40,2-14.6,9.7-14,1.5-17.7-6.5-2.9-13.1-12.3-16-16,.7-2,1.6-3.9,2.6-5.7l11.2,2.6c7.7,4.6,16.6,10.4,16.6,10.4l3.6,20.8c2.4,19.1,5.5,39.4,5.3,51.1Z"/>
              <path id="Path_9515" class="cls-18" d="M294.7,205.6s-7.7,6.5-21.6.3-22-43.8-15.8-53.9c2.1-3.4,3.9-6.7,5.4-9.6,2.8-5.5,4.2-9.3,3.1-9.2-1.7.2,28.2-16.3,28.2-16.3,1,1.9,1.9,3.9,2.5,5.9,2.2,7,3.9,18.9-5.2,29.3-13.9,15.9,3.5,53.4,3.5,53.4Z"/>
              <path id="Path_9516" class="cls-1" d="M296.4,122.9s-13.5,21.2-33.8,19.5c2.8-5.5,4.2-9.3,3.1-9.2-1.7.2,28.2-16.3,28.2-16.3,1,1.9,1.9,3.9,2.5,5.9Z"/>
              <path id="Path_9517" class="cls-18" d="M281.8,97.9s15.9,6.3,17.3,11.7-11.5,21-31.4,25.6-27.4-16.7-27.4-16.7c0,0,2.8-4.7,6.6-6.9,4.8-2.7,9.5,8.4,34.9-13.7Z"/>
            </g>
            <g id="Group_4945">
              <path id="Path_9518" class="cls-11" d="M262.3,240.3c3.6-2.2,5.3-6.5,4.3-10.6-1.7-7.1-7.7-8.8-6-14.1-2,3.1-1.7,7.2.8,9.9,4.2,5.2,2.9,11.4.9,14.8Z"/>
              <path id="Path_9519" class="cls-11" d="M255.2,241c2.3-2,2.6-5.4.8-7.8-3.1-4.5-.8-6.3-.8-6.3,0,0-3.3,2.3-1.3,5.4s1.6,6.9,1.3,8.7Z"/>
              <path id="Path_9520" class="cls-11" d="M273.1,239.3c-2.3-2-2.6-5.4-.8-7.8,3.1-4.5.8-6.3.8-6.3,0,0,3.3,2.3,1.3,5.4s-1.6,6.9-1.3,8.7Z"/>
            </g>
            <g id="Group_4961">
              <g id="Group_4959">
                <path id="Path_9521" class="cls-7" d="M260.2,15.8s-29.3-2.6-35.8,23.3-1.3,68.6,16,72.1,42-13.9,50.1-40.7-5.1-53.9-30.2-54.7Z"/>
                <g id="Group_4958">
                  <g id="Group_4953">
                    <path id="Path_9522" class="cls-23" d="M249.7,23.1s7.8-2.7,8.8,7.5-7.7,21,8.8,26.1c0,0,3.8,2,4,8.9s1.5,7.5,5.7,9.5c0,0-.2,20,8.7,23,0,0-1.4-4.2-.7-7.3,0,0,2.6,1.9,7.3,1.7,0,0-3.4-3-4.1-4.8,3.8,1.5,8,1.3,11.6-.4,0,0-5.4-4-4.9-13.6,0,0,.6-6,2.1-14.5s4-49-36-46.3c0,0-15.2-7.1-31.3,4.1s-13.1,37.3-13.1,37.3c0,0,1.6,1.7,5-.3,0,0,0,2.9-2.1,4,0,0,13.1.1,16.4-10.4,0,0,3.8-2.5,3.8-9.7s-.8-15.2,10-14.6Z"/>
                    <g id="Group_4952">
                      <g id="Group_4949">
                        <g id="Group_4946">
                          <path id="Path_9523" class="cls-4" d="M268.1,57.7c.4,0,.7-.4.6-.8,0-.1,0-.2-.1-.3-2.5-3.5-1.5-6.2,0-10.5,1.1-2.8,1.9-5.8,2.4-8.8.7-4.5,0-9.1-1.8-13.2-1.6-3.5-4.6-6.2-8.2-7.4-7.1-2.1-11.1,5-11.2,5.1-.2.3-.2,1,.1,1.2s.9-.2,1.1-.5c0,0,3.6-6.2,9.6-4.4,6.5,1.9,10.4,10.1,9.1,19-.5,2.9-1.2,5.8-2.3,8.5-1.5,4.3-2.7,7.7.2,11.7.1.2.4.3.6.3Z"/>
                        </g>
                        <g id="Group_4947">
                          <path id="Path_9524" class="cls-4" d="M284.4,67.8c.4,0,.7-.4.6-.8,0-.2,0-.3-.2-.4-6-5.9-6-13.8-5.4-17.9,0-.5.1-1.1.2-1.7.9-6.5,2.3-16.3-4.3-24-7.9-9.2-17.9-6.5-18-6.5-.4.1-.6.5-.5.9.1.4.7.2,1,.1s9.1-2.2,16.4,6.4c6.2,7.2,4.9,16.6,4,22.9,0,.6-.2,1.2-.2,1.7-1,7.6,1.1,14.4,5.8,19.1.1.1.4.2.6.2Z"/>
                        </g>
                        <g id="Group_4948">
                          <path id="Path_9525" class="cls-4" d="M295.1,74.1c.4,0,.7-.4.6-.8,0-.2-.1-.4-.3-.5-5.4-3.9-5.3-9.9-5.3-18.2.2-5.7-.2-11.3-1.1-16.9-2.2-12-9-17.2-14.5-19.5-3.6-1.5-7.4-2.2-11.3-2.1-.4,0-.7.4-.6.7,0,.4.4.3.7.3,3.7.1,7.3.9,10.7,2.3,7.4,3.1,11.9,9.3,13.6,18.4.9,5.5,1.2,11.1,1,16.7,0,8.4,0,15.1,5.8,19.4.1,0,.3.1.5.1Z"/>
                        </g>
                      </g>
                      <g id="Group_4950">
                        <path id="Path_9526" class="cls-4" d="M236,48c.3,0,.6-.3.6-.6.5-2.8,0-6-.5-9.4-.8-5.3-1.6-10.8,1.5-14,5-5.1,12-1.7,12.1-1.6.3.2.8.1,1-.2.2-.3.1-.8-.2-1,0,0,0,0-.1,0,0,0-8-3.9-13.7,1.9-3.6,3.7-2.8,9.5-1.9,15.2.5,3.3.9,6.4.5,8.9,0,.4.2.7.6.8,0,0,.1,0,.2,0h0Z"/>
                      </g>
                      <g id="Group_4951">
                        <path id="Path_9527" class="cls-4" d="M221.8,54.4c.1,0,.3,0,.4-.1,4.1-3.2,4.1-8.8,4-14.6,0-6.8,0-13.8,5.9-18.3,11-8.4,20-3.4,20.4-3.2.4.2.8,0,.9-.4.1-.3,0-.7-.2-.9-2-1-4.3-1.6-6.5-1.7-3.6-.3-9.2.4-15.4,5.1-6.5,5-6.5,12.6-6.5,19.4,0,5.5,0,10.7-3.5,13.5-.3.2-.3.7,0,1,.1.2.4.3.6.3h0Z"/>
                      </g>
                      <path id="Path_9528" class="cls-4" d="M261,12.6c-2.5.3-8.8.8-11.3,10.4,4.5-8.5,10.3-9.7,11.3-10.4Z"/>
                    </g>
                  </g>
                  <g id="Group_4957">
                    <path id="Path_9529" class="cls-7" d="M274.3,69s2.2-9,10.3-7-.4,22.5-7.2,20.7-3-13.8-3-13.8Z"/>
                    <g id="Group_4956">
                      <g id="Group_4954">
                        <path id="Path_9530" class="cls-13" d="M278.3,78.3c.4,0,.7-.4.6-.8,0,0,0,0,0,0-.8-7.3,3.1-9.1,3.2-9.2.4-.2.5-.6.3-.9-.2-.3-.5-.5-.9-.4-.2,0-5.1,2.2-4.1,10.6,0,.4.4.7.8.6Z"/>
                      </g>
                      <g id="Group_4955">
                        <path id="Path_9531" class="cls-13" d="M278.5,75.1c.2,0,.3,0,.4-.2,1-1.1,2.5-1.5,3.9-1.1.4.1.8,0,.9-.5.1-.3,0-.7-.4-.9-1.9-.6-4,0-5.4,1.5-.3.3-.3.7,0,1,.2.1.4.2.6.2h0Z"/>
                      </g>
                    </g>
                  </g>
                </g>
              </g>
              <g id="Group_4960">
                <path id="Path_9532" class="cls-31" d="M298.3,70.1c-.9,2.3-1.9,4.6-3.2,6.7,0,0-22.6-34.3-45.6-39.8s-32.3,2.9-32.3,2.9c0,0-1.7-34.8,46.9-39.6,18.9-1.9,29.6,6.1,34.9,17.9,7.1,15.6,4.7,37.9-.7,52Z"/>
                <path id="Path_9533" class="cls-5" d="M298.3,70.1l-1.8-.5-38.3-37.8s23,12.3,34.6,5.3c8.6-5.3,7.4-14.6,6.2-18.9,7.1,15.6,4.7,37.9-.7,52Z"/>
                <path id="Path_9534" class="cls-26" d="M227.3,37s-9.8,4-10.3,4.4-1.1-7.4.5-9.3c2.3-2.8,20.8-12.3,52.1,5s30.4,33.8,30.4,33.8c0,0-.4,12.1-4.4,8.3s-8.1-17.1-25.6-29.4-28.7-15.8-42.5-12.8Z"/>
                <path id="Path_9535" class="cls-10" d="M257.5,26.5s-6.9-2.5-22.5-3.9c0,0,2.1-7.1,4.6-10,.9-1.1,20,1.5,22.3,3.1,0,0-3.1,7.7-4.4,10.8Z"/>
              </g>
            </g>
          </g>
        </g>
      </g>
      <g id="Group_4986">
        <g id="Group_4967">
          <g id="Group_4966">
            <path id="Path_9536" class="cls-28" d="M358.6,520.9s0,6.9-2.3,11.5-3.2,17.9,5.2,25.4l-12.7-.6s-3.2-8.9-2.9-17.6,4.3-13,4.3-21.3l8.4,2.6Z"/>
            <path id="Path_9537" class="cls-28" d="M380.8,446.6s-13.8-1.2-20.5.9l-.9-7.5s12.4-2.6,21.6-1.2l-.3,7.8Z"/>
            <path id="Path_9538" class="cls-20" d="M381.9,369.1s-24.8-6.9-34.3,2-12.1,33.1-10.1,55,5.5,40.3,6.1,65.7,1.4,34.6,15.3,33.4c3.7-.3,5.5-6.3,5.8-25.9s-.9-45.5-2-64.3-1.2-45.8,2.6-47.3,10.7.6,14.1,3.7l2.6-22.5Z"/>
          </g>
          <path id="Path_9539" class="cls-26" d="M378.2,557.5s-12.4.6-21-2.9-20.2-1.7-22.5,7.8-5.4,33.7,64.3,45.5l-20.8-50.4Z"/>
        </g>
        <g id="Group_4985">
          <path id="Path_9540" class="cls-18" d="M514,306.3c-.8-1.7-2-3.3-3.3-4.7-3.7-3.7-12-11.5-21.4-15.2-12.7-5-23.8-8.5-41.1-5.8s-49.9,5.8-57.6,10.4-13.4,16.1-14.2,32.3,1.2,79.9,1.5,117.2-1.2,103.7-1.2,125.6,9.6,39.2,22.3,41.9,81.8-.8,117.6-10.8c5.8-2.3,15.4-9.2,16.9-25.4s-3.5-92.6-4.6-116.4-5-80.7-7.7-108c-2.5-25-2.7-31.9-7.1-41.2Z"/>
          <g id="Group_4984">
            <g id="Group_4969">
              <path id="Path_9541" class="cls-1" d="M399,608c-12.7-2.7-22.3-20-22.3-41.9s1.5-88.4,1.2-125.6-2.3-101-1.5-117.2c.7-14.3,5.3-24.9,11.6-30.4,4.5.1,13.9,1.2,25.6,7,16.5,8.1,21.9,14.2,23.4,18.1s.4,55.3,1.5,83.7.4,95.3,0,123.3c-.3,25.4,5.6,69.9,1,83-19.2,1.2-35.2,1.1-40.6,0Z"/>
              <g id="Group_4968">
                <path id="Path_9542" class="cls-1" d="M376.7,376.2s19.4,35.2,62.3,57.1v4.1c.3,30.8-.2,68.3-.5,87.5-.3,25.4,5.6,69.9,1,83-19.2,1.2-35.2,1.1-40.6,0-12.7-2.7-22.3-20-22.3-41.9s1.5-88.4,1.2-125.6c-.2-18-.7-42.2-1.2-64.3Z"/>
                <path id="Path_9543" class="cls-18" d="M376.7,566.1c0-21.9,1.5-88.4,1.2-125.6-.2-17.9-.7-42-1.1-63.9l.4.4c2.8,4.7,18.5,29.7,49.3,49.2-1,14.3-6.8,79.2-33,156.7-5,.3-10,.1-14.9-.6-1.3-5.3-1.9-10.8-1.9-16.2Z"/>
              </g>
            </g>
            <g id="Group_4971">
              <path id="Path_9544" class="cls-26" d="M378.1,580.4c41.9,3,49.6-26.6,52.2-35.5,1.4-4.8,5.5-8.2,8.3-10,.8,25.7,4.9,61.6.9,73.1-19.2,1.2-35.2,1.1-40.6,0-9.8-2.1-20.2-11.9-20.8-27.6Z"/>
              <g id="Group_4970">
                <path id="Path_9545" class="cls-28" d="M438.7,534.9s-29.2,27.4-62,27.9c-.6-4.3-.6-8.7.1-13,1.8-.4,35.8-9.1,61.8-29.7,0,1.8,0,3.4,0,4.9,0,3,0,6.4.1,9.9h0Z"/>
                <path id="Path_9546" class="cls-22" d="M410.2,534.7c1-.6,2.3-.6,3.4,0,.9.5,1.6,1.4,1.8,2.4.7,2.4,4.9,13,2.9,14.7s-19.9,8.9-22.8,8.9-6.9-14.7-6.6-16.1,9.2-4,12.7-5.5c2.7-1.1,6.8-3.4,8.6-4.4Z"/>
              </g>
            </g>
            <g id="Group_4983">
              <g id="Group_4976">
                <g id="Group_4973">
                  <path id="Path_9547" class="cls-31" d="M441.9,386.1s1.6,66.6,2.8,79.3c1.4,14.3,1.3,22.1,2.1,26.5,0,0-8.6,2.4-12.6,1.2,0,0-1.7-96.4-2-107.9l9.7,1Z"/>
                  <g id="Group_4972">
                    <path id="Rectangle_8" class="cls-25" d="M438.4,440.8h0c-6.4.3-11.8-4.6-12.1-10.9l-.8-16.1c-.3-6.4,4.6-11.8,10.9-12.1h0c6.4-.3,11.8,4.6,12.1,10.9l.8,16.1c.3,6.4-4.6,11.8-10.9,12.1Z"/>
                    <path id="Path_9548" class="cls-21" d="M448.5,413.5l.8,15.5c-4.3-.2-7.6-3.8-7.4-8.1.2-3.7,3-6.8,6.7-7.4Z"/>
                    <path id="Path_9549" class="cls-21" d="M432.9,422.1c0,3.9-2.8,7.1-6.7,7.7l-.8-15.5c4.2.2,7.4,3.6,7.4,7.8Z"/>
                  </g>
                </g>
                <g id="Group_4975">
                  <path id="Path_9550" class="cls-31" d="M522.9,367.4s10.3,79.8,11.5,91.1,3.2,25.6,5.8,33.1c-3.4.5-6.9.7-10.4.6,0,0-8.7-104.7-10.4-127.5l3.5,2.7Z"/>
                  <g id="Group_4974">
                    <path id="Path_9551" class="cls-25" d="M524.9,439.6l8.3-.6c2.4-.2,4.1-2.2,4-4.6h0s-2.1-31-2.1-31c-.2-2.4-2.2-4.1-4.6-4h0l-8.3.6c-2.4.2-4.1,2.2-4,4.6,0,0,0,0,0,0l2.1,31c.2,2.4,2.2,4.1,4.6,4h0Z"/>
                    <path id="Path_9552" class="cls-21" d="M535.7,412.9l.9,13.7c-3.9-1.8-5.6-6.4-3.8-10.3.6-1.4,1.6-2.5,2.9-3.4Z"/>
                    <path id="Path_9553" class="cls-21" d="M523.4,421.2c0,2.7-1.4,5.2-3.7,6.6l-.9-13.7c2.8,1.3,4.6,4,4.6,7.1Z"/>
                  </g>
                </g>
              </g>
              <g id="Group_4982">
                <g id="Group_4979">
                  <g id="Group_4977">
                    <path id="Path_9554" class="cls-31" d="M505.8,356s1.2,126.8,11.9,170.6l8.5-1.5s-11.9-46.5-12.7-167.9l-7.7-1.2Z"/>
                    <path id="Path_9555" class="cls-31" d="M462.4,361.7s10,114.9,3.1,174h-8.1s6.5-101.8-2.7-172.1l7.7-1.9Z"/>
                  </g>
                  <g id="Group_4978">
                    <path id="Path_9556" class="cls-31" d="M505.4,523.1s22.3-3.5,26.9-1.2,6.1,20,6.1,36.1-.4,31.5-16.9,36.1-75.7,10.8-79.1,9.2-4.6-13.8-4.2-31.9-5-39.6,8.1-42.3,59.2-6.1,59.2-6.1Z"/>
                    <path id="Path_9557" class="cls-18" d="M503.3,527.7s19.6-3,23.7-1,5.4,17.6,5.4,31.8-.3,27.8-14.9,31.8-66.7,9.5-69.8,8.1-4.1-12.2-3.7-28.1-4.4-34.9,7.1-37.2,52.2-5.4,52.2-5.4Z"/>
                    <path id="Path_9558" class="cls-31" d="M516.4,525.2c3.2-.9,6.2-.8,7.5-.1,1.5.7,2.5,6.3,3.4,9.8,1.3,11.4,1.9,32.4-2.8,51.1-1.4,4.1-4.6,4.6-9.2,5.6,2.8-12.2,6.9-40.7,1.2-66.4Z"/>
                    <path id="Path_9559" class="cls-31" d="M459.7,531.8c4.1-1.6,7.2-1.8,10-1.1,1.7,8.4,7.5,42.2-2.2,66.9-3.4,1.3-7,1.6-10.6.9,4-12.7,9.5-37.9,2.8-66.6Z"/>
                  </g>
                  <path id="Path_9560" class="cls-31" d="M437,317.9c-.8-1.8-1.9-3.5-3.3-4.9v-3.6c-.1,0,48.8-10.9,76.2-8.7.3.3.5.5.8.8,1.4,1.4,2.5,3,3.3,4.7,4.5,9.3,4.7,16.2,7.1,41.2.6,6.1,1.3,13.6,1.9,21.9-3.1-3.8-13-13.1-34.2-11.9-24.9,1.4-42,20.1-50.6,33.8-.6-29,.1-70-1.2-73.4Z"/>
                </g>
                <g id="Group_4981">
                  <path id="Path_9561" class="cls-3" d="M390.5,291c7.7-4.6,40.3-7.7,57.6-10.4s28.4.8,41.1,5.8c9.4,3.7,17.8,11.4,21.4,15.2,1.1,1.2,2.1,2.5,2.9,3.9-12.2-1.4-49.1-3.8-78.5,13.2l-48.6-24.5c1.2-1.2,2.5-2.3,4-3.2Z"/>
                  <path id="Path_9562" class="cls-26" d="M387.9,292.9c4.5.1,13.9,1.2,25.6,7,16.5,8.1,21.9,14.2,23.4,18.1,1.4,3.4.6,44.1,1.2,73.1-2.7-2.5-23.5-19.8-61.5-14.8-1-17.6-1.1-35.3-.4-52.9.7-14.3,5.3-24.9,11.6-30.4Z"/>
                  <g id="Group_4980">
                    <path id="Path_9563" class="cls-28" d="M430.1,373c0,0-.1,0-.2,0-.3-.1-26.2-10.6-43.9-5.7-.3.1-.5,0-.7-.3-.1-.3,0-.5.3-.7,0,0,0,0,.1,0,18-5,44.2,5.7,44.5,5.8.3.1.4.4.2.7,0,.2-.2.3-.4.3h0Z"/>
                  </g>
                </g>
              </g>
            </g>
          </g>
        </g>
      </g>
    </g>
  </g>
</svg>